<svg width="68" height="11" viewBox="0 0 68 11" fill="none" xmlns="http://www.w3.org/2000/svg">
<path d="M59.9061 10.7724C59.8106 10.7724 59.7015 10.7451 59.5787 10.6905C59.4695 10.6359 59.3672 10.554 59.2717 10.4448C59.1899 10.3492 59.1489 10.2468 59.1489 10.1376C59.1489 9.98736 59.183 9.8167 59.2512 9.62555C59.3195 9.42075 59.4081 9.16816 59.5173 8.86779L61.4615 3.80923C61.5297 3.64539 61.5502 3.50203 61.5229 3.37915C61.5092 3.24262 61.4342 3.17435 61.2978 3.17435C61.0795 3.17435 60.8816 3.20848 60.7043 3.27675C60.5269 3.34502 60.37 3.42694 60.2336 3.52251C60.1517 3.57712 60.0699 3.59078 59.988 3.56347C59.9061 3.53616 59.8652 3.4679 59.8652 3.35867C59.8516 3.19483 59.9198 3.01734 60.0699 2.82619C60.2336 2.63504 60.4382 2.46438 60.6838 2.31419C60.8885 2.164 61.1272 2.04795 61.4001 1.96603C61.673 1.87046 61.9458 1.82267 62.2187 1.82267C62.6007 1.82267 62.8531 1.92507 62.9759 2.12987C63.0987 2.32102 63.1328 2.58726 63.0782 2.92859C63.0373 3.25627 62.9282 3.63174 62.7508 4.05499L61.8708 6.20539C61.8162 6.30096 61.8299 6.3624 61.9117 6.38971C62.0072 6.41702 62.0754 6.38971 62.1164 6.30779C62.6348 5.39302 63.1533 4.60112 63.6717 3.93211C64.2038 3.24944 64.7018 2.71696 65.1657 2.33467C65.6432 1.95238 66.073 1.76123 66.455 1.76123C66.837 1.76123 67.1099 1.87046 67.2736 2.08891C67.451 2.30736 67.5396 2.5736 67.5396 2.88763C67.5396 3.17435 67.4783 3.46107 67.3555 3.74779C67.2463 4.03451 67.0962 4.27344 66.9052 4.46459C66.7279 4.64208 66.5437 4.73083 66.3527 4.73083C66.2162 4.73083 66.1139 4.66256 66.0457 4.52603C65.9911 4.3895 65.9502 4.19835 65.9229 3.95259C65.9093 3.74779 65.8683 3.57712 65.8001 3.44059C65.7455 3.2904 65.6432 3.21531 65.4931 3.21531C65.3158 3.21531 65.1111 3.33136 64.8792 3.56347C64.6472 3.78192 64.3675 4.13008 64.0401 4.60795C63.9037 4.7991 63.7195 5.07216 63.4875 5.42715C63.2556 5.76848 63.01 6.15078 62.7508 6.57403C62.4916 6.99728 62.2323 7.42054 61.9731 7.84379C61.7139 8.26705 61.4888 8.64934 61.2978 8.99067C60.9703 9.57777 60.7043 10.0215 60.4996 10.3219C60.295 10.6222 60.0971 10.7724 59.9061 10.7724Z" fill="#1B426D"/>
<path d="M53.4965 10.7519C53.1554 10.7519 52.7938 10.6426 52.4118 10.4242C52.0434 10.1921 51.7296 9.89853 51.4704 9.54355C51.2248 9.17491 51.1021 8.78579 51.1021 8.37619C51.1021 7.58429 51.2521 6.7924 51.5523 6.00051C51.8524 5.20861 52.2617 4.49181 52.7802 3.85011C53.2986 3.2084 53.8853 2.68957 54.5402 2.29363C55.1951 1.89768 55.8704 1.69971 56.5662 1.69971C57.2484 1.69971 57.7532 1.83624 58.0807 2.10931C58.4081 2.36872 58.5718 2.6964 58.5718 3.09235C58.5718 3.54291 58.4218 3.93203 58.1216 4.25971C57.8351 4.58739 57.4531 4.86728 56.9756 5.09939C56.5117 5.33149 55.9932 5.52264 55.4202 5.67283C54.8608 5.82301 54.3219 5.95272 53.8035 6.06195C53.7352 6.0756 53.6807 6.09608 53.6397 6.12339C53.6124 6.13704 53.5852 6.178 53.5579 6.24627C53.5033 6.42376 53.4555 6.60808 53.4146 6.79923C53.3737 6.99038 53.3464 7.17469 53.3328 7.35219C53.3191 7.83005 53.4283 8.23283 53.6602 8.56051C53.9058 8.87453 54.2605 9.03155 54.7244 9.03155C55.1473 9.03155 55.5225 8.92915 55.85 8.72435C56.1774 8.50589 56.4776 8.24648 56.7504 7.94611C56.9005 7.79592 57.0233 7.72083 57.1188 7.72083C57.2416 7.72083 57.303 7.78909 57.303 7.92563C57.303 7.96659 57.2962 8.01437 57.2825 8.06899C57.2825 8.10995 57.2689 8.14408 57.2416 8.17139C56.9824 8.64925 56.6686 9.08616 56.3002 9.48211C55.9318 9.87805 55.5157 10.1921 55.0518 10.4242C54.5879 10.6426 54.0695 10.7519 53.4965 10.7519ZM53.9467 5.42707C54.1786 5.37245 54.4583 5.29736 54.7858 5.20179C55.1132 5.09256 55.427 4.94237 55.7272 4.75123C56.041 4.56008 56.3002 4.32797 56.5049 4.05491C56.7095 3.76819 56.8187 3.42685 56.8323 3.03091C56.8459 2.86707 56.805 2.71688 56.7095 2.58035C56.614 2.44381 56.4707 2.37555 56.2797 2.37555C56.0205 2.37555 55.7545 2.47112 55.4816 2.66227C55.2087 2.85341 54.9495 3.09917 54.7039 3.39955C54.472 3.68627 54.2741 4.00029 54.1104 4.34163C53.9467 4.68296 53.8444 5.00381 53.8035 5.30419C53.7898 5.39976 53.8376 5.44072 53.9467 5.42707Z" fill="#1B426D"/>
<path d="M41.4151 10.7722C41.3332 10.7722 41.2514 10.7381 41.1695 10.6698C41.1013 10.6152 41.0399 10.5401 40.9853 10.4445C40.9308 10.3626 40.8898 10.267 40.8625 10.1578C40.8489 10.0486 40.8625 9.95302 40.9035 9.8711L43.2774 4.05478C43.523 3.45403 43.5367 3.15366 43.3184 3.15366C43.1819 3.15366 43.0387 3.17414 42.8886 3.2151C42.7385 3.24241 42.5748 3.32433 42.3974 3.46086C42.2201 3.59739 42.0222 3.80902 41.8039 4.09574C41.7494 4.15035 41.688 4.17766 41.6197 4.17766C41.5652 4.16401 41.5242 4.10939 41.497 4.01382C41.497 3.9319 41.5174 3.8295 41.5584 3.70662C41.6129 3.57009 41.6743 3.44038 41.7425 3.3175C41.8108 3.18097 41.8722 3.07174 41.9267 2.98982C42.1314 2.67579 42.4042 2.43003 42.7453 2.25254C43.1001 2.07505 43.5094 1.97947 43.9732 1.96582C44.1233 1.96582 44.2598 2.00678 44.3825 2.0887C44.5053 2.15697 44.594 2.25937 44.6486 2.3959C44.7168 2.53243 44.7168 2.68262 44.6486 2.84646L43.2979 6.32806C43.257 6.42363 43.2638 6.47825 43.3184 6.4919C43.3866 6.50555 43.4411 6.47825 43.4821 6.40998C44.0415 5.45425 44.6077 4.6487 45.1807 3.99334C45.7674 3.32433 46.3267 2.81915 46.8588 2.47782C47.3909 2.13649 47.8616 1.96582 48.2709 1.96582C48.5574 1.96582 48.803 2.06822 49.0077 2.27302C49.226 2.46417 49.3624 2.73041 49.417 3.07174C49.4852 3.39942 49.4238 3.78171 49.2328 4.21862L47.35 8.68326C47.1453 9.17478 47.1795 9.42054 47.4523 9.42054C47.616 9.42054 47.8139 9.3591 48.0458 9.23622C48.2914 9.11334 48.537 8.96998 48.7826 8.80614C49.0281 8.62865 49.2396 8.47163 49.417 8.3351C49.608 8.18491 49.7308 8.08251 49.7854 8.0279C49.799 8.01425 49.8058 8.00742 49.8058 8.00742C49.8195 8.00742 49.8331 8.00742 49.8467 8.00742C49.8877 8.00742 49.9218 8.0279 49.9491 8.06886C49.99 8.09617 50.0105 8.13713 50.0105 8.19174C50.0105 8.30097 49.9832 8.39654 49.9286 8.47846C49.5739 8.90171 49.1919 9.28401 48.7826 9.62534C48.3869 9.96667 47.9708 10.2397 47.5342 10.4445C47.1112 10.6357 46.6815 10.7313 46.2449 10.7313C46.1221 10.7313 45.9993 10.6835 45.8765 10.5879C45.7537 10.506 45.6582 10.3968 45.59 10.2602C45.5354 10.1237 45.5422 9.98033 45.6105 9.83014C46.0061 8.91537 46.4018 8.00742 46.7974 7.1063C47.2067 6.19153 47.5888 5.27675 47.9435 4.36198C48.1618 3.80219 48.2368 3.41307 48.1686 3.19462C48.1004 2.96251 47.9708 2.83963 47.7798 2.82598C47.6297 2.81233 47.4523 2.86694 47.2477 2.98982C47.043 3.09905 46.8111 3.27654 46.5519 3.5223C46.2926 3.75441 46.0129 4.05478 45.7128 4.42342C45.5491 4.61457 45.3308 4.91494 45.0579 5.32454C44.785 5.72049 44.4781 6.1847 44.137 6.71718C43.7959 7.23601 43.4412 7.79579 43.0728 8.39654C42.718 8.98363 42.377 9.5639 42.0495 10.1373C41.9267 10.3558 41.8176 10.5128 41.7221 10.6084C41.6266 10.7176 41.5242 10.7722 41.4151 10.7722Z" fill="#1B426D"/>
<path d="M35.1898 10.7519C34.8488 10.7519 34.4872 10.6426 34.1052 10.4242C33.7368 10.1921 33.423 9.89853 33.1638 9.54355C32.9182 9.17491 32.7954 8.78579 32.7954 8.37619C32.7954 7.58429 32.9455 6.7924 33.2456 6.00051C33.5458 5.20861 33.9551 4.49181 34.4736 3.85011C34.992 3.2084 35.5787 2.68957 36.2336 2.29363C36.8884 1.89768 37.5638 1.69971 38.2596 1.69971C38.9418 1.69971 39.4466 1.83624 39.774 2.10931C40.1015 2.36872 40.2652 2.6964 40.2652 3.09235C40.2652 3.54291 40.1151 3.93203 39.815 4.25971C39.5285 4.58739 39.1464 4.86728 38.6689 5.09939C38.205 5.33149 37.6866 5.52264 37.1136 5.67283C36.5542 5.82301 36.0153 5.95272 35.4968 6.06195C35.4286 6.0756 35.374 6.09608 35.3331 6.12339C35.3058 6.13704 35.2785 6.178 35.2512 6.24627C35.1967 6.42376 35.1489 6.60808 35.108 6.79923C35.067 6.99038 35.0398 7.17469 35.0261 7.35219C35.0125 7.83005 35.1216 8.23283 35.3536 8.56051C35.5991 8.87453 35.9539 9.03155 36.4177 9.03155C36.8407 9.03155 37.2159 8.92915 37.5433 8.72435C37.8708 8.50589 38.1709 8.24648 38.4438 7.94611C38.5939 7.79592 38.7167 7.72083 38.8122 7.72083C38.935 7.72083 38.9964 7.78909 38.9964 7.92563C38.9964 7.96659 38.9895 8.01437 38.9759 8.06899C38.9759 8.10995 38.9622 8.14408 38.935 8.17139C38.6757 8.64925 38.3619 9.08616 37.9936 9.48211C37.6252 9.87805 37.2091 10.1921 36.7452 10.4242C36.2813 10.6426 35.7629 10.7519 35.1898 10.7519ZM35.6401 5.42707C35.872 5.37245 36.1517 5.29736 36.4791 5.20179C36.8066 5.09256 37.1204 4.94237 37.4205 4.75123C37.7343 4.56008 37.9936 4.32797 38.1982 4.05491C38.4029 3.76819 38.512 3.42685 38.5257 3.03091C38.5393 2.86707 38.4984 2.71688 38.4029 2.58035C38.3074 2.44381 38.1641 2.37555 37.9731 2.37555C37.7139 2.37555 37.4478 2.47112 37.175 2.66227C36.9021 2.85341 36.6429 3.09917 36.3973 3.39955C36.1653 3.68627 35.9675 4.00029 35.8038 4.34163C35.6401 4.68296 35.5377 5.00381 35.4968 5.30419C35.4832 5.39976 35.5309 5.44072 35.6401 5.42707Z" fill="#1B426D"/>
<path d="M27.9453 10.7315C27.8361 10.7315 27.7133 10.6837 27.5769 10.5882C27.4405 10.5062 27.3245 10.4107 27.229 10.3014C27.1471 10.1786 27.1062 10.0693 27.1062 9.97376C27.1062 9.74166 27.1335 9.54368 27.1881 9.37984C27.2563 9.216 27.3245 9.03168 27.3927 8.82688L29.3369 3.35872C29.3642 3.26315 29.3505 3.20171 29.296 3.1744C29.255 3.13344 29.2005 3.11296 29.1323 3.11296L28.3136 3.072C28.1363 3.05835 28.0271 3.02421 27.9862 2.9696C27.9589 2.90133 27.9453 2.83989 27.9453 2.78528C27.9453 2.75797 27.9794 2.71019 28.0476 2.64192C28.1158 2.56 28.1977 2.48491 28.2932 2.41664C28.4023 2.33472 28.5183 2.29376 28.6411 2.29376H29.3778C29.5279 2.29376 29.6302 2.27328 29.6848 2.23232C29.7394 2.17771 29.8008 2.07531 29.869 1.92512L30.3602 0.9216C30.4147 0.812374 30.5171 0.689493 30.6671 0.55296C30.8172 0.402773 30.9673 0.273067 31.1174 0.16384C31.2811 0.0546135 31.3971 0 31.4653 0C31.5744 0 31.6426 0.0750936 31.6699 0.225281C31.6972 0.375467 31.6836 0.518827 31.629 0.65536L31.0969 2.02752C31.0696 2.12309 31.0764 2.18453 31.1174 2.21184C31.1719 2.23915 31.2538 2.2528 31.363 2.2528C31.6358 2.2528 31.9155 2.27328 32.202 2.31424C32.4885 2.3552 32.7205 2.38933 32.8978 2.41664C33.1161 2.4576 33.2458 2.50539 33.2867 2.56C33.3413 2.60096 33.3685 2.65557 33.3685 2.72384C33.3685 2.75115 33.3413 2.79893 33.2867 2.8672C33.2321 2.92181 33.1298 2.95595 32.9797 2.9696C32.6795 2.98325 32.393 3.00373 32.1202 3.03104C31.8473 3.04469 31.5608 3.05835 31.2606 3.072C31.0423 3.08565 30.8854 3.11979 30.7899 3.1744C30.7081 3.22901 30.6535 3.29728 30.6262 3.3792L28.8048 8.41728C28.7502 8.58112 28.7229 8.72448 28.7229 8.84736C28.7229 8.97024 28.7571 9.06581 28.8253 9.13408C28.9071 9.20235 29.0231 9.23648 29.1732 9.23648C29.3642 9.23648 29.5688 9.16821 29.7871 9.03168C30.0054 8.89515 30.2169 8.73814 30.4216 8.56064C30.6262 8.38315 30.7968 8.22613 30.9332 8.0896C31.0833 7.93941 31.2129 7.87115 31.322 7.8848C31.4312 7.89845 31.4857 7.94624 31.4857 8.02816C31.4857 8.12373 31.4516 8.23296 31.3834 8.35584C31.3152 8.46507 31.2265 8.58112 31.1174 8.704C30.8991 8.93611 30.6671 9.15456 30.4216 9.35936C30.1896 9.56416 29.944 9.75531 29.6848 9.9328C29.4392 10.0966 29.2005 10.24 28.9685 10.3629C28.7502 10.4721 28.5524 10.5609 28.375 10.6291C28.1977 10.6974 28.0544 10.7315 27.9453 10.7315Z" fill="#1B426D"/>
<path d="M17.0218 10.752C16.9263 10.752 16.824 10.7179 16.7149 10.6496C16.6057 10.5814 16.5034 10.4926 16.4079 10.3834C16.326 10.2605 16.2646 10.1308 16.2237 9.99427C16.1828 9.84409 16.1964 9.70755 16.2646 9.58467L18.5158 3.99363C18.7341 3.48846 18.7205 3.23587 18.4749 3.23587C18.3657 3.23587 18.2293 3.24953 18.0656 3.27683C17.9019 3.30414 17.7245 3.37923 17.5335 3.50211C17.3425 3.62499 17.1378 3.82297 16.9195 4.09603C16.8649 4.15065 16.7967 4.17795 16.7149 4.17795C16.6467 4.1643 16.5989 4.10969 16.5716 4.01411C16.5716 3.91854 16.5989 3.80249 16.6535 3.66595C16.7217 3.51577 16.7967 3.37241 16.8786 3.23587C16.9741 3.08569 17.056 2.96963 17.1242 2.88771C17.3698 2.57369 17.6836 2.3211 18.0656 2.12995C18.4612 1.93881 18.9251 1.83641 19.4572 1.82275C19.6755 1.82275 19.8529 1.88419 19.9893 2.00707C20.1394 2.1163 20.2417 2.25966 20.2963 2.43715C20.3508 2.61465 20.3372 2.80579 20.2553 3.01059L19.007 6.22595C18.966 6.32153 18.9865 6.37614 19.0684 6.38979C19.1502 6.40345 19.2116 6.36931 19.2526 6.28739C19.7846 5.37262 20.3236 4.58073 20.8693 3.91171C21.415 3.2427 21.9471 2.7307 22.4656 2.37571C22.9977 2.00707 23.4957 1.82275 23.9595 1.82275C24.3279 1.82275 24.6212 1.94563 24.8395 2.19139C25.0715 2.4235 25.2079 2.72387 25.2488 3.09251C25.2898 3.4475 25.2216 3.84345 25.0442 4.28035L23.2842 8.43779C23.0795 8.90201 23.1068 9.13411 23.3661 9.13411C23.5025 9.13411 23.673 9.0795 23.8777 8.97027C24.096 8.86105 24.3074 8.73134 24.5121 8.58115C24.7304 8.43097 24.9214 8.28761 25.0851 8.15107C25.2625 8.01454 25.3785 7.91897 25.433 7.86435C25.474 7.83705 25.5081 7.80974 25.5354 7.78243C25.5626 7.75513 25.5899 7.74148 25.6172 7.74148C25.6582 7.74148 25.6991 7.76195 25.74 7.80291C25.7809 7.84387 25.8014 7.89166 25.8014 7.94627C25.8014 8.11012 25.7537 8.2603 25.6581 8.39683C25.2761 8.83374 24.8668 9.22969 24.4302 9.58467C23.9936 9.93966 23.5434 10.2196 23.0795 10.4244C22.6157 10.6292 22.1586 10.7316 21.7084 10.7316C21.5719 10.7316 21.4287 10.6838 21.2786 10.5882C21.1422 10.4926 21.033 10.3697 20.9512 10.2196C20.8829 10.0694 20.8829 9.91918 20.9512 9.76899C21.3605 8.81326 21.7766 7.87118 22.1995 6.94275C22.6361 6.01433 23.0386 5.07225 23.407 4.11651C23.5843 3.66595 23.6457 3.3451 23.5912 3.15395C23.5366 2.96281 23.4206 2.86041 23.2433 2.84675C23.0795 2.84675 22.8954 2.92185 22.6907 3.07203C22.486 3.22222 22.2541 3.43385 21.9949 3.70691C21.7493 3.97998 21.4901 4.29401 21.2172 4.64899C21.0671 4.84014 20.8625 5.12686 20.6033 5.50915C20.3577 5.89145 20.078 6.32835 19.7642 6.81987C19.4504 7.31139 19.1298 7.82339 18.8023 8.35587C18.4885 8.88835 18.1884 9.40035 17.9019 9.89187C17.7518 10.1649 17.6017 10.3766 17.4516 10.5268C17.3152 10.6769 17.1719 10.752 17.0218 10.752Z" fill="#1B426D"/>
<path d="M9.35469 10.7314C8.90446 10.7314 8.47469 10.6153 8.06539 10.3832C7.66973 10.1375 7.34911 9.81661 7.10352 9.42067C6.87158 9.01107 6.75562 8.54685 6.75562 8.02803C6.75562 7.38632 6.88523 6.70365 7.14445 5.98003C7.41732 5.2564 7.79934 4.57373 8.2905 3.93203C8.78167 3.27667 9.36833 2.74419 10.0505 2.33459C10.7463 1.91133 11.5172 1.69971 12.3631 1.69971C13.1953 1.69971 13.857 1.95229 14.3482 2.45747C14.853 2.94899 15.1054 3.618 15.1054 4.46451C15.1054 5.07891 14.9758 5.74792 14.7166 6.47155C14.4573 7.19517 14.0753 7.88467 13.5705 8.54003C13.0657 9.18173 12.4586 9.70739 11.7491 10.117C11.0533 10.5266 10.2552 10.7314 9.35469 10.7314ZM9.74353 9.99411C10.03 9.99411 10.3166 9.84392 10.6031 9.54355C10.9032 9.24317 11.1897 8.85405 11.4626 8.37619C11.7355 7.88467 11.9742 7.34536 12.1789 6.75827C12.3972 6.17117 12.5677 5.58408 12.6905 4.99699C12.827 4.40989 12.8952 3.87741 12.8952 3.39955C12.8952 3.09917 12.8406 2.86024 12.7314 2.68275C12.6223 2.50525 12.4245 2.41651 12.138 2.41651C11.8787 2.41651 11.599 2.55987 11.2989 2.84659C11.0124 3.13331 10.7327 3.5156 10.4598 3.99347C10.1869 4.45768 9.93454 4.98333 9.7026 5.57043C9.4843 6.14387 9.30694 6.72413 9.17051 7.31123C9.03407 7.89832 8.96585 8.45128 8.96585 8.97011C8.96585 9.32509 9.03407 9.58451 9.17051 9.74835C9.32058 9.91219 9.51159 9.99411 9.74353 9.99411Z" fill="#1B426D"/>
<path d="M2.06826 10.752C1.74082 10.752 1.41338 10.6496 1.08593 10.4448C0.772134 10.2264 0.506087 9.93966 0.287791 9.58467C0.0831397 9.22969 -0.0123644 8.82691 0.00127907 8.37635C0.0149225 7.81657 0.103605 7.2363 0.267326 6.63555C0.431048 6.03481 0.662986 5.44771 0.963142 4.87427C1.2633 4.30083 1.63167 3.78883 2.06826 3.33827C2.50485 2.87406 3.00284 2.50542 3.56222 2.23235C4.1216 1.95929 4.73556 1.82275 5.40408 1.82275C5.82703 1.82275 6.15447 1.9115 6.38641 2.08899C6.63199 2.25283 6.75479 2.45081 6.75479 2.68291C6.75479 2.91502 6.67975 3.15395 6.52967 3.39971C6.37959 3.63182 6.22269 3.74787 6.05897 3.74787C5.94982 3.74787 5.85432 3.70009 5.77246 3.60451C5.70424 3.50894 5.62238 3.37241 5.52688 3.19491C5.43137 3.01742 5.30858 2.86041 5.1585 2.72387C5.02207 2.57369 4.85152 2.49859 4.64687 2.49859C4.33307 2.49859 4.01245 2.67609 3.68501 3.03107C3.35757 3.37241 3.05059 3.81614 2.76408 4.36227C2.49121 4.90841 2.26609 5.4955 2.08873 6.12355C1.92501 6.75161 1.83632 7.3387 1.82268 7.88483C1.82268 8.34905 1.92501 8.69038 2.12966 8.90883C2.33431 9.11363 2.614 9.21603 2.96873 9.21603C3.37803 9.21603 3.72594 9.13411 4.01245 8.97027C4.29896 8.79278 4.56501 8.5675 4.81059 8.29443C4.89246 8.21251 4.96067 8.15107 5.01525 8.11011C5.06982 8.06915 5.13122 8.04867 5.19943 8.04867C5.32222 8.04867 5.38362 8.13059 5.38362 8.29443C5.38362 8.48558 5.28811 8.71769 5.09711 8.99076C4.91974 9.26382 4.66734 9.53689 4.3399 9.80995C4.0261 10.083 3.67137 10.3083 3.27571 10.4858C2.89369 10.6633 2.49121 10.752 2.06826 10.752Z" fill="#1B426D"/>
</svg>
