<svg width="82" height="15" viewBox="0 0 82 15" fill="none" xmlns="http://www.w3.org/2000/svg">
<path d="M73.5204 14.8066C73.4249 14.8066 73.3157 14.7793 73.193 14.7247C73.0838 14.6701 72.9815 14.5882 72.886 14.4789C72.8041 14.3834 72.7632 14.281 72.7632 14.1717C72.7632 14.0215 72.7973 13.8509 72.8655 13.6597C72.9337 13.4549 73.0224 13.2023 73.1316 12.902L75.0757 7.84341C75.144 7.67957 75.1644 7.53621 75.1371 7.41333C75.1235 7.2768 75.0485 7.20853 74.912 7.20853C74.6937 7.20853 74.4959 7.24266 74.3185 7.31093C74.1412 7.3792 73.9843 7.46112 73.8478 7.55669C73.766 7.6113 73.6841 7.62496 73.6023 7.59765C73.5204 7.57034 73.4795 7.50208 73.4795 7.39285C73.4658 7.22901 73.534 7.05152 73.6841 6.86037C73.8478 6.66922 74.0525 6.49856 74.2981 6.34837C74.5027 6.19818 74.7415 6.08213 75.0144 6.00021C75.2872 5.90464 75.5601 5.85685 75.833 5.85685C76.215 5.85685 76.4674 5.95925 76.5902 6.16405C76.713 6.3552 76.7471 6.62144 76.6925 6.96277C76.6516 7.29045 76.5424 7.66592 76.3651 8.08917L75.485 10.2396C75.4305 10.3351 75.4441 10.3966 75.526 10.4239C75.6215 10.4512 75.6897 10.4239 75.7306 10.342C76.2491 9.4272 76.7675 8.6353 77.286 7.96629C77.8181 7.28362 78.3161 6.75114 78.7799 6.36885C79.2575 5.98656 79.6872 5.79541 80.0692 5.79541C80.4513 5.79541 80.7241 5.90464 80.8879 6.12309C81.0652 6.34154 81.1539 6.60778 81.1539 6.92181C81.1539 7.20853 81.0925 7.49525 80.9697 7.78197C80.8606 8.06869 80.7105 8.30762 80.5195 8.49877C80.3421 8.67626 80.1579 8.76501 79.9669 8.76501C79.8305 8.76501 79.7282 8.69674 79.6599 8.56021C79.6054 8.42368 79.5644 8.23253 79.5372 7.98677C79.5235 7.78197 79.4826 7.6113 79.4144 7.47477C79.3598 7.32458 79.2575 7.24949 79.1074 7.24949C78.93 7.24949 78.7254 7.36554 78.4934 7.59765C78.2615 7.8161 77.9818 8.16426 77.6544 8.64213C77.5179 8.83328 77.3337 9.10634 77.1018 9.46133C76.8699 9.80266 76.6243 10.185 76.3651 10.6082C76.1058 11.0315 75.8466 11.4547 75.5874 11.878C75.3282 12.3012 75.103 12.6835 74.912 13.0249C74.5846 13.6119 74.3185 14.0557 74.1139 14.3561C73.9092 14.6564 73.7114 14.8066 73.5204 14.8066Z" fill="#1B426D"/>
<path d="M62.1135 14.7658C61.9361 14.7658 61.7519 14.7111 61.5609 14.6019C61.3836 14.5063 61.2335 14.3835 61.1107 14.2333C60.9879 14.0831 60.9265 13.9329 60.9265 13.7827C60.9265 13.3321 61.0629 12.8338 61.3358 12.2877C61.6087 11.7415 62.0248 11.1135 62.5842 10.4035C63.1572 9.67988 63.894 8.85386 64.7944 7.92543C65.4357 7.28372 66.0019 6.77855 66.493 6.40991C66.9978 6.02762 67.373 5.83647 67.6186 5.83647C67.9324 5.83647 68.2667 5.99348 68.6214 6.30751C68.7442 6.44404 68.8056 6.51231 68.8056 6.51231C68.8056 6.51231 68.8124 6.51231 68.8261 6.51231C68.8534 6.51231 68.8738 6.50548 68.8875 6.49183C68.9011 6.47818 68.9216 6.44404 68.9489 6.38943C69.0853 6.14367 69.174 5.98666 69.2149 5.91839C69.2558 5.83647 69.2763 5.78186 69.2763 5.75455C69.3445 5.59071 69.481 5.50879 69.6856 5.50879C69.8766 5.50879 70.0676 5.54975 70.2586 5.63167C70.4633 5.71359 70.627 5.81599 70.7498 5.93887C70.8862 6.0481 70.9544 6.1505 70.9544 6.24607C70.9544 6.32799 70.934 6.43039 70.8931 6.55327L68.7647 12.2877C68.6282 12.6836 68.7033 12.8816 68.9898 12.8816C69.1808 12.8816 69.44 12.7655 69.7675 12.5334C70.1086 12.2877 70.4292 11.9941 70.7293 11.6528C70.7703 11.6255 70.7975 11.6118 70.8112 11.6118C70.8248 11.5982 70.8385 11.5913 70.8521 11.5913C70.9203 11.5913 70.9749 11.6187 71.0158 11.6733C71.0568 11.7142 71.0772 11.7825 71.0772 11.8781C71.0772 12.0419 70.9544 12.2808 70.7089 12.5949C70.4769 12.9089 70.1904 13.2161 69.8493 13.5165C69.3991 13.9124 68.9489 14.2196 68.4986 14.4381C68.0484 14.6565 67.6596 14.7658 67.3321 14.7658C67.1547 14.7658 66.9706 14.7111 66.7796 14.6019C66.5885 14.5063 66.4316 14.3835 66.3088 14.2333C66.1861 14.0694 66.1247 13.9124 66.1247 13.7622C66.1247 13.6393 66.1656 13.4823 66.2475 13.2912C66.2475 13.2775 66.2679 13.2093 66.3088 13.0864C66.3634 12.9499 66.4316 12.786 66.5135 12.5949C66.5954 12.3901 66.684 12.1921 66.7796 12.0009C66.8751 11.7961 66.9637 11.605 67.0456 11.4275C67.0865 11.3319 67.0865 11.2637 67.0456 11.2227C67.0183 11.1681 66.9774 11.1681 66.9228 11.2227C66.1861 12.0692 65.5244 12.7519 64.9377 13.2707C64.3647 13.7895 63.853 14.1718 63.4028 14.4176C62.9526 14.6497 62.5228 14.7658 62.1135 14.7658ZM63.9349 12.8816C64.1941 12.8816 64.5898 12.6563 65.1219 12.2057C65.654 11.7552 66.2202 11.1681 66.8205 10.4445C67.2844 9.88468 67.6527 9.37951 67.9256 8.92895C68.1985 8.47839 68.3349 8.15071 68.3349 7.94591C68.3349 7.83668 68.2121 7.67967 67.9665 7.47487C67.8574 7.3793 67.7346 7.3042 67.5982 7.24959C67.4754 7.19498 67.373 7.16767 67.2912 7.16767C67.0729 7.16767 66.7659 7.29055 66.3702 7.53631C65.9882 7.78207 65.6267 8.06879 65.2856 8.39647C64.9581 8.72415 64.6443 9.1201 64.3442 9.58431C64.044 10.0349 63.7985 10.4923 63.6074 10.9565C63.4164 11.4207 63.3209 11.8235 63.3209 12.1648C63.3209 12.3832 63.3755 12.5607 63.4847 12.6973C63.5938 12.8201 63.7439 12.8816 63.9349 12.8816Z" fill="#1B426D"/>
<path d="M51.6377 14.7656C51.1874 14.7656 50.8191 14.6154 50.5325 14.3151C50.246 14.001 50.1028 13.6051 50.1028 13.1272C50.1028 12.622 50.2051 12.0691 50.4098 11.4683C50.6144 10.8539 50.9009 10.2327 51.2693 9.60466C51.6513 8.96295 52.0879 8.34855 52.5791 7.76146C53.1385 7.1061 53.6978 6.60093 54.2572 6.24594C54.8302 5.8773 55.3555 5.69298 55.833 5.69298C56.1195 5.69298 56.3719 5.75442 56.5902 5.8773C56.8222 6.00018 57.0882 6.15719 57.3884 6.34834C57.5521 6.44391 57.6544 6.50535 57.6954 6.53266C57.7363 6.54631 57.7636 6.55314 57.7772 6.55314C57.8318 6.55314 57.8727 6.49853 57.9 6.3893L59.0051 2.8053C59.087 2.55954 59.1416 2.38205 59.1689 2.27282C59.1961 2.14994 59.2166 2.07485 59.2303 2.04754C59.2439 2.02023 59.2439 1.99975 59.2303 1.9861C59.2303 1.97245 59.2303 1.95197 59.2303 1.92466C59.2303 1.77447 59.1689 1.64477 59.0461 1.53554C58.9369 1.42631 58.7459 1.32391 58.473 1.22834C58.2547 1.14642 58.1183 1.09181 58.0637 1.0645C58.0092 1.02354 57.9819 0.975752 57.9819 0.921139C57.9819 0.825566 58.0296 0.750473 58.1251 0.695859C58.2206 0.641246 58.3844 0.579806 58.6163 0.511539C58.7937 0.470579 59.0256 0.422793 59.3121 0.36818C59.5986 0.299913 59.892 0.2453 60.1921 0.20434C60.5059 0.149726 60.7788 0.108766 61.0107 0.08146C61.2427 0.0404997 61.3996 0.0200195 61.4814 0.0200195C61.7679 0.0200195 61.9112 0.115593 61.9112 0.30674C61.9112 0.402312 61.8975 0.497886 61.8703 0.593459C61.8566 0.689033 61.8225 0.825566 61.7679 1.00306L58.1865 12.1647C58.1592 12.2466 58.1388 12.3217 58.1251 12.3899C58.1115 12.4582 58.1047 12.5265 58.1047 12.5947C58.1047 12.7722 58.1661 12.861 58.2889 12.861C58.4253 12.861 58.6027 12.7995 58.8209 12.6767C59.0392 12.5538 59.2712 12.3899 59.5168 12.1851C59.7623 11.9667 59.9806 11.7482 60.1716 11.5298C60.1989 11.4888 60.2194 11.4683 60.233 11.4683C60.2467 11.4547 60.2672 11.4479 60.2944 11.4479C60.4445 11.4479 60.5127 11.5366 60.4991 11.7141C60.4991 11.8916 60.4104 12.1169 60.233 12.3899C60.0557 12.6494 59.8237 12.9156 59.5372 13.1887C59.2507 13.4617 58.9369 13.7211 58.5958 13.9669C58.2547 14.199 57.9273 14.3902 57.6135 14.5403C57.2997 14.6905 57.0268 14.7656 56.7949 14.7656C56.6039 14.7656 56.4129 14.711 56.2219 14.6018C56.0445 14.4926 55.8944 14.356 55.7716 14.1922C55.6488 14.0283 55.5875 13.8645 55.5875 13.7007C55.5875 13.6187 55.6147 13.4549 55.6693 13.2091C55.7239 13.059 55.7921 12.8746 55.874 12.6562C55.9558 12.4377 56.0309 12.2261 56.0991 12.0213C56.1809 11.8165 56.2423 11.6663 56.2833 11.5707C56.3378 11.4752 56.3447 11.4888 56.3037 11.6117C56.3447 11.5025 56.3378 11.4342 56.2833 11.4069C56.2423 11.3659 56.1946 11.3932 56.14 11.4888C55.1986 12.6357 54.3732 13.4686 53.6637 13.9874C52.9543 14.5062 52.2789 14.7656 51.6377 14.7656ZM53.0498 13.1067C53.3636 13.1067 53.7047 12.9907 54.073 12.7586C54.455 12.5128 54.8302 12.192 55.1986 11.796C55.567 11.3864 55.9081 10.9495 56.2219 10.4853C56.5493 10.0074 56.8017 9.52957 56.9791 9.0517C57.1701 8.57383 57.2656 8.14375 57.2656 7.76146C57.2656 7.37917 57.1837 7.09245 57.02 6.9013C56.8699 6.6965 56.6448 6.5941 56.3447 6.5941C56.0854 6.5941 55.7785 6.73063 55.4237 7.0037C55.0826 7.26311 54.7347 7.6181 54.38 8.06866C54.0253 8.50557 53.6978 8.98343 53.3977 9.50226C53.0975 10.0074 52.8588 10.5194 52.6814 11.0383C52.504 11.5571 52.4153 12.0076 52.4153 12.3899C52.4153 12.6357 52.4631 12.82 52.5586 12.9429C52.6677 13.0521 52.8315 13.1067 53.0498 13.1067Z" fill="#1B426D"/>
<path d="M43.5766 14.8272C43.5084 14.8272 43.4333 14.7999 43.3515 14.7453C43.2696 14.7044 43.2014 14.6429 43.1468 14.561C43.0922 14.4927 43.0649 14.4176 43.0649 14.3357C43.0649 14.1719 43.1059 13.9671 43.1877 13.7213C43.2832 13.4619 43.3992 13.141 43.5356 12.7588L45.4184 7.84355C45.4867 7.66606 45.5139 7.50222 45.5003 7.35203C45.5003 7.20184 45.4321 7.12675 45.2956 7.12675C45.1046 7.12675 44.9136 7.15406 44.7226 7.20867C44.5453 7.24963 44.4088 7.29742 44.3133 7.35203C44.2315 7.40664 44.1496 7.4203 44.0677 7.39299C43.9995 7.35203 43.9654 7.28376 43.9654 7.18819C43.9654 7.07896 44.0132 6.95608 44.1087 6.81955C44.2178 6.68302 44.3611 6.55331 44.5384 6.43043C44.7022 6.30755 44.8932 6.20515 45.1115 6.12323C45.3434 6.04131 45.5822 6.00035 45.8277 6.00035C46.2098 6.00035 46.4485 6.09592 46.544 6.28707C46.6532 6.47822 46.6668 6.73763 46.5849 7.06531C46.5167 7.37934 46.4008 7.74115 46.237 8.15075L45.3161 10.465C45.2615 10.5606 45.2752 10.622 45.357 10.6493C45.4525 10.6766 45.5208 10.6561 45.5617 10.5879C46.1074 9.64579 46.6532 8.82659 47.1989 8.13027C47.7583 7.4203 48.2767 6.87416 48.7543 6.49187C49.2318 6.09592 49.6274 5.89795 49.9412 5.89795C50.296 5.89795 50.5415 6.00035 50.678 6.20515C50.8281 6.40995 50.9031 6.64888 50.9031 6.92195C50.9031 7.16771 50.8553 7.4203 50.7598 7.67971C50.678 7.93912 50.5552 8.15758 50.3915 8.33507C50.2414 8.49891 50.0708 8.58083 49.8798 8.58083C49.7707 8.58083 49.6888 8.51939 49.6343 8.39651C49.5797 8.25998 49.5524 8.08248 49.5524 7.86403C49.5524 7.65923 49.5251 7.50222 49.4705 7.39299C49.416 7.27011 49.3136 7.20867 49.1636 7.20867C49.0271 7.20867 48.8429 7.29742 48.611 7.47491C48.3927 7.6524 48.113 7.9596 47.7719 8.39651C47.6219 8.60131 47.424 8.8812 47.1784 9.23619C46.9329 9.59118 46.6668 9.98712 46.3803 10.424C46.1074 10.8473 45.8346 11.2842 45.5617 11.7348C45.2888 12.1717 45.0501 12.5744 44.8454 12.9431C44.477 13.5984 44.211 14.0763 44.0473 14.3767C43.8972 14.677 43.7403 14.8272 43.5766 14.8272Z" fill="#1B426D"/>
<path d="M36.3598 14.7661C35.9096 14.7661 35.4798 14.65 35.0705 14.4179C34.6749 14.1721 34.3542 13.8513 34.1087 13.4553C33.8767 13.0457 33.7607 12.5815 33.7607 12.0627C33.7607 11.421 33.8904 10.7383 34.1496 10.0147C34.4225 9.29107 34.8045 8.6084 35.2956 7.9667C35.7868 7.31134 36.3735 6.77886 37.0556 6.36926C37.7515 5.946 38.5223 5.73438 39.3682 5.73438C40.2004 5.73438 40.8622 5.98696 41.3533 6.49214C41.8581 6.98366 42.1105 7.65267 42.1105 8.49917C42.1105 9.11357 41.9809 9.78259 41.7217 10.5062C41.4625 11.2298 41.0805 11.9193 40.5756 12.5747C40.0708 13.2164 39.4637 13.7421 38.7542 14.1517C38.0584 14.5613 37.2603 14.7661 36.3598 14.7661ZM36.7487 14.0288C37.0352 14.0288 37.3217 13.8786 37.6082 13.5782C37.9084 13.2778 38.1949 12.8887 38.4677 12.4109C38.7406 11.9193 38.9794 11.38 39.184 10.7929C39.4023 10.2058 39.5729 9.61875 39.6956 9.03166C39.8321 8.44456 39.9003 7.91208 39.9003 7.43422C39.9003 7.13384 39.8457 6.89491 39.7366 6.71742C39.6274 6.53992 39.4296 6.45118 39.1431 6.45118C38.8839 6.45118 38.6042 6.59453 38.304 6.88125C38.0175 7.16797 37.7378 7.55027 37.4649 8.02813C37.1921 8.49235 36.9397 9.018 36.7077 9.6051C36.4894 10.1785 36.3121 10.7588 36.1756 11.3459C36.0392 11.933 35.971 12.4859 35.971 13.0048C35.971 13.3598 36.0392 13.6192 36.1756 13.783C36.3257 13.9469 36.5167 14.0288 36.7487 14.0288Z" fill="#1B426D"/>
<path d="M27.1048 14.6432C26.5727 14.6432 26.1497 14.493 25.8359 14.1926C25.5221 13.8786 25.3652 13.469 25.3652 12.9638C25.3652 12.6225 25.4062 12.2402 25.488 11.817C25.5699 11.3801 25.6859 10.9363 25.8359 10.4858L28.4145 2.68288C28.4828 2.49173 28.5305 2.30741 28.5578 2.12992C28.5987 1.93877 28.6192 1.75445 28.6192 1.57696C28.6192 1.50869 28.5783 1.44725 28.4964 1.39264C28.4282 1.33803 28.2986 1.28341 28.1076 1.2288C27.6846 1.11957 27.4731 1.01717 27.4731 0.921599C27.4731 0.853333 27.4936 0.798719 27.5345 0.75776C27.5891 0.7168 27.6778 0.675839 27.8006 0.634879C27.9507 0.580267 28.1417 0.518826 28.3736 0.450559C28.6192 0.368639 28.8648 0.293546 29.1104 0.22528C29.3559 0.157013 29.5742 0.102399 29.7652 0.0614392C29.9699 0.0204797 30.0995 0 30.1541 0C30.3724 0 30.4815 0.0682666 30.4815 0.2048C30.4815 0.32768 30.4679 0.436906 30.4406 0.532479C30.427 0.6144 30.3928 0.730453 30.3383 0.88064C30.2291 1.15371 30.079 1.56331 29.888 2.10944C29.697 2.64192 29.4856 3.24267 29.2536 3.91168C29.0353 4.56704 28.8102 5.23605 28.5783 5.91872C28.3463 6.58773 28.128 7.21579 27.9234 7.80288C27.7324 8.38997 27.5823 8.86101 27.4731 9.216C27.4186 9.35253 27.4186 9.43445 27.4731 9.46176C27.5414 9.48907 27.6232 9.44128 27.7187 9.3184C28.5237 8.25344 29.2877 7.43424 30.0108 6.8608C30.7339 6.28736 31.3479 6.00064 31.8527 6.00064C32.2893 6.00064 32.6508 6.144 32.9373 6.43072C33.2239 6.71744 33.3671 7.07925 33.3671 7.51616C33.3671 8.14421 33.2375 8.79275 32.9783 9.46176C32.7327 10.1171 32.3916 10.7588 31.955 11.3869C31.5321 12.0013 31.0477 12.5542 30.502 13.0458C29.9563 13.5373 29.3901 13.9264 28.8034 14.2131C28.2304 14.4998 27.6642 14.6432 27.1048 14.6432ZM27.6369 13.9878C27.8142 13.9878 28.0462 13.8923 28.3327 13.7011C28.6192 13.51 28.9262 13.2506 29.2536 12.9229C29.5947 12.5815 29.9221 12.1993 30.2359 11.776C30.5634 11.3391 30.8635 10.8612 31.1364 10.3424C31.4093 9.80992 31.6208 9.30475 31.7708 8.82688C31.9346 8.33536 32.0164 7.92576 32.0164 7.59808C32.0164 7.36597 31.955 7.17483 31.8322 7.02464C31.7231 6.8608 31.5866 6.77888 31.4229 6.77888C31 6.77888 30.5156 7.01781 29.9699 7.49568C29.4242 7.97355 28.7897 8.704 28.0666 9.68704C27.6164 10.3151 27.2549 10.8954 26.982 11.4278C26.7091 11.9603 26.5727 12.3563 26.5727 12.6157C26.5727 12.9843 26.675 13.3052 26.8797 13.5782C27.098 13.8513 27.3504 13.9878 27.6369 13.9878Z" fill="#1B426D"/>
<path d="M19.2246 14.7662C18.829 14.7662 18.5015 14.6638 18.2423 14.459C17.9694 14.2542 17.833 13.9948 17.833 13.6808C17.833 13.3531 17.908 13.1005 18.0581 12.923C18.2082 12.7319 18.3583 12.6363 18.5084 12.6363C18.6039 12.6363 18.7062 12.6841 18.8153 12.7797C18.9381 12.8752 19.0677 12.9845 19.2042 13.1073C19.3679 13.2439 19.5521 13.3872 19.7567 13.5374C19.975 13.6876 20.2274 13.7627 20.5139 13.7627C20.8277 13.7627 21.0733 13.6535 21.2507 13.435C21.4281 13.2166 21.5236 12.9708 21.5372 12.6977C21.5372 12.4247 21.469 12.1175 21.3326 11.7761C21.1961 11.4212 21.0256 11.0798 20.8209 10.7521C20.6163 10.4245 20.4457 10.0968 20.3093 9.7691C20.1729 9.42777 20.1046 9.12739 20.1046 8.86798C20.1046 8.47203 20.2138 8.09657 20.4321 7.74158C20.664 7.3866 20.9437 7.06574 21.2712 6.77902C21.6122 6.4923 21.9465 6.26702 22.274 6.10318C22.6014 5.93934 22.8606 5.85742 23.0516 5.85742C23.2972 5.85742 23.5291 5.91886 23.7474 6.04174C23.9794 6.16462 24.1704 6.30115 24.3205 6.45134C24.4705 6.60153 24.5456 6.73806 24.5456 6.86094C24.5456 6.97017 24.491 7.09987 24.3819 7.25006C24.2864 7.40025 24.1704 7.53678 24.034 7.65966C23.8975 7.76889 23.7747 7.8235 23.6656 7.8235C23.5701 7.8235 23.4746 7.78254 23.3791 7.70062C23.2972 7.60505 23.2085 7.50265 23.113 7.39342C23.0175 7.2842 22.8947 7.18862 22.7446 7.1067C22.6082 7.01113 22.4445 6.96334 22.2535 6.96334C22.0488 6.96334 21.8715 7.04526 21.7214 7.2091C21.585 7.37294 21.5167 7.57774 21.5167 7.8235C21.5167 7.93273 21.5577 8.09657 21.6395 8.31502C21.735 8.53348 21.8442 8.75875 21.967 8.99086C22.0898 9.22297 22.2126 9.44142 22.3353 9.64622C22.5673 10.0012 22.7583 10.3767 22.9084 10.7726C23.0584 11.1549 23.1335 11.5099 23.1335 11.8376C23.1335 12.2062 23.0107 12.568 22.7651 12.923C22.5332 13.2644 22.2262 13.5784 21.8442 13.8651C21.4622 14.1382 21.0392 14.3566 20.5753 14.5205C20.1251 14.6843 19.6749 14.7662 19.2246 14.7662Z" fill="#1B426D"/>
<path d="M13.4496 14.7865C13.1085 14.7865 12.747 14.6773 12.3649 14.4589C11.9966 14.2267 11.6828 13.9332 11.4235 13.5782C11.178 13.2096 11.0552 12.8205 11.0552 12.4109C11.0552 11.619 11.2053 10.8271 11.5054 10.0352C11.8056 9.24328 12.2149 8.52648 12.7333 7.88478C13.2518 7.24307 13.8384 6.72424 14.4933 6.3283C15.1482 5.93235 15.8236 5.73438 16.5194 5.73438C17.2015 5.73438 17.7064 5.87091 18.0338 6.14398C18.3612 6.40339 18.525 6.73107 18.525 7.12702C18.525 7.57758 18.3749 7.9667 18.0747 8.29437C17.7882 8.62205 17.4062 8.90195 16.9287 9.13406C16.4648 9.36616 15.9464 9.55731 15.3733 9.70749C14.8139 9.85768 14.275 9.98739 13.7566 10.0966C13.6884 10.1103 13.6338 10.1307 13.5929 10.1581C13.5656 10.1717 13.5383 10.2127 13.511 10.2809C13.4564 10.4584 13.4087 10.6427 13.3677 10.8339C13.3268 11.025 13.2995 11.2094 13.2859 11.3869C13.2722 11.8647 13.3814 12.2675 13.6133 12.5952C13.8589 12.9092 14.2136 13.0662 14.6775 13.0662C15.1005 13.0662 15.4757 12.9638 15.8031 12.759C16.1305 12.5406 16.4307 12.2811 16.7036 11.9808C16.8536 11.8306 16.9764 11.7555 17.0719 11.7555C17.1947 11.7555 17.2561 11.8238 17.2561 11.9603C17.2561 12.0013 17.2493 12.049 17.2357 12.1037C17.2357 12.1446 17.222 12.1787 17.1947 12.2061C16.9355 12.6839 16.6217 13.1208 16.2533 13.5168C15.885 13.9127 15.4688 14.2267 15.005 14.4589C14.5411 14.6773 14.0226 14.7865 13.4496 14.7865ZM13.8998 9.46174C14.1318 9.40712 14.4115 9.33203 14.7389 9.23645C15.0663 9.12723 15.3801 8.97704 15.6803 8.7859C15.9941 8.59475 16.2533 8.36264 16.458 8.08958C16.6626 7.80286 16.7718 7.46152 16.7854 7.06558C16.7991 6.90174 16.7581 6.75155 16.6626 6.61502C16.5671 6.47848 16.4239 6.41021 16.2329 6.41021C15.9736 6.41021 15.7076 6.50579 15.4347 6.69694C15.1619 6.88808 14.9026 7.13384 14.657 7.43422C14.4251 7.72094 14.2273 8.03496 14.0636 8.3763C13.8998 8.71763 13.7975 9.03848 13.7566 9.33885C13.7429 9.43443 13.7907 9.47539 13.8998 9.46174Z" fill="#1B426D"/>
<path d="M1.45303 14.7656C1.03008 14.7656 0.682172 14.6223 0.409303 14.3355C0.136434 14.0352 0 13.6597 0 13.2091C0 12.6903 0.109148 12.1237 0.327443 11.5093C0.545738 10.8812 0.839072 10.2464 1.20745 9.60466C1.58946 8.9493 2.02605 8.34173 2.51722 7.78194C3.0766 7.14023 3.62916 6.64871 4.17489 6.30738C4.73428 5.95239 5.24591 5.7749 5.70978 5.7749C5.94172 5.7749 6.13955 5.82269 6.30327 5.91826C6.48064 6.00018 6.73986 6.15037 7.08095 6.36882C7.29924 6.50535 7.42886 6.58727 7.46979 6.61458C7.51072 6.62823 7.52436 6.63506 7.51072 6.63506C7.56529 6.63506 7.60622 6.58045 7.63351 6.47122L8.86142 2.3957C8.91599 2.23186 8.9501 2.10898 8.96375 2.02706C8.99103 1.94514 9.00467 1.89735 9.00467 1.8837C9.01832 1.85639 9.01832 1.83591 9.00467 1.82226C9.00467 1.79495 9.00467 1.76765 9.00467 1.74034C9.00467 1.60381 8.95692 1.48775 8.86142 1.39218C8.76591 1.28295 8.59537 1.18738 8.34979 1.10546C8.09056 0.996233 7.93366 0.927966 7.87909 0.900659C7.82452 0.873353 7.79723 0.83922 7.79723 0.798259C7.79723 0.702686 7.84498 0.627593 7.94049 0.57298C8.04963 0.518366 8.227 0.463753 8.47258 0.409139C8.66359 0.368179 8.88188 0.327219 9.12747 0.28626C9.38669 0.231646 9.63227 0.190686 9.86421 0.163379C10.1098 0.122419 10.3213 0.0882861 10.4986 0.060979C10.6896 0.0336727 10.8193 0.0200195 10.8875 0.0200195C11.1058 0.0200195 11.2149 0.115593 11.2149 0.30674C11.2149 0.402312 11.2081 0.491059 11.1944 0.57298C11.1808 0.6549 11.1467 0.764126 11.0921 0.900659L7.63351 12.2261C7.61987 12.3217 7.5994 12.4104 7.57211 12.4923C7.55847 12.5743 7.55165 12.6562 7.55165 12.7381C7.55165 12.9839 7.63351 13.1067 7.79723 13.1067C7.94731 13.1067 8.13832 13.0453 8.37025 12.9224C8.60219 12.7859 8.84095 12.6152 9.08654 12.4104C9.33212 12.192 9.54359 11.9667 9.72096 11.7346C9.76189 11.6936 9.78917 11.6731 9.80282 11.6731C9.81646 11.6595 9.83693 11.6527 9.86421 11.6527C10.0006 11.6527 10.0552 11.7209 10.0279 11.8575C10.0279 12.0213 9.94607 12.2329 9.78235 12.4923C9.61863 12.7381 9.40034 12.9907 9.12747 13.2501C8.86824 13.5095 8.58173 13.7553 8.26793 13.9874C7.96777 14.2195 7.66762 14.4038 7.36746 14.5403C7.08095 14.6905 6.83537 14.7656 6.63071 14.7656C6.46699 14.7656 6.30327 14.7178 6.13955 14.6223C5.97583 14.5267 5.8394 14.4038 5.73025 14.2536C5.6211 14.0898 5.56653 13.9259 5.56653 13.7621C5.56653 13.6938 5.59381 13.5232 5.64839 13.2501C5.68932 13.0999 5.74389 12.9156 5.81211 12.6971C5.88033 12.4787 5.94854 12.2671 6.01676 12.0623C6.08498 11.8575 6.13273 11.7073 6.16002 11.6117C6.1873 11.5161 6.1873 11.523 6.16002 11.6322C6.1873 11.5366 6.18048 11.4683 6.13955 11.4274C6.09862 11.3864 6.05769 11.4001 6.01676 11.4683C5.07536 12.6425 4.24993 13.489 3.54047 14.0079C2.83102 14.513 2.1352 14.7656 1.45303 14.7656ZM2.55815 13.4344C2.88559 13.4344 3.25396 13.3115 3.66327 13.0658C4.07257 12.8064 4.47505 12.4719 4.87071 12.0623C5.26637 11.639 5.63474 11.1748 5.97583 10.6696C6.31692 10.1644 6.58296 9.6661 6.77397 9.17458C6.97862 8.66941 7.08095 8.20519 7.08095 7.78194C7.08095 7.39965 6.99909 7.09927 6.83537 6.88082C6.67165 6.66237 6.43289 6.55314 6.11909 6.55314C5.83257 6.55314 5.49831 6.6965 5.11629 6.98322C4.74792 7.26994 4.37272 7.64541 3.99071 8.10962C3.62234 8.57383 3.27443 9.07901 2.94698 9.62514C2.63319 10.1713 2.37396 10.7174 2.16931 11.2635C1.9783 11.8097 1.8828 12.2875 1.8828 12.6971C1.8828 12.9702 1.93055 13.1614 2.02605 13.2706C2.1352 13.3798 2.31256 13.4344 2.55815 13.4344Z" fill="#1B426D"/>
</svg>
