<svg width="68" height="15" viewBox="0 0 68 15" fill="none" xmlns="http://www.w3.org/2000/svg">
<path d="M59.8063 14.8071C59.7108 14.8071 59.6016 14.7798 59.4788 14.7252C59.3697 14.6706 59.2674 14.5886 59.1719 14.4794C59.09 14.3838 59.0491 14.2814 59.0491 14.1722C59.0491 14.022 59.0832 13.8514 59.1514 13.6602C59.2196 13.4554 59.3083 13.2028 59.4174 12.9025L61.3616 7.8439C61.4299 7.68006 61.4503 7.5367 61.423 7.41382C61.4094 7.27729 61.3344 7.20902 61.1979 7.20902C60.9796 7.20902 60.7818 7.24315 60.6044 7.31142C60.4271 7.37969 60.2702 7.4616 60.1337 7.55718C60.0519 7.61179 59.97 7.62545 59.8881 7.59814C59.8063 7.57083 59.7654 7.50257 59.7654 7.39334C59.7517 7.2295 59.8199 7.05201 59.97 6.86086C60.1337 6.66971 60.3384 6.49905 60.584 6.34886C60.7886 6.19867 61.0274 6.08262 61.3002 6.0007C61.5731 5.90512 61.846 5.85734 62.1188 5.85734C62.5009 5.85734 62.7533 5.95974 62.8761 6.16454C62.9989 6.35569 63.033 6.62193 62.9784 6.96326C62.9375 7.29094 62.8283 7.6664 62.6509 8.08966L61.7709 10.2401C61.7164 10.3356 61.73 10.3971 61.8119 10.4244C61.9074 10.4517 61.9756 10.4244 62.0165 10.3425C62.535 9.42769 63.0534 8.63579 63.5719 7.96678C64.104 7.28411 64.602 6.75163 65.0658 6.36934C65.5434 5.98705 65.9731 5.7959 66.3551 5.7959C66.7372 5.7959 67.01 5.90513 67.1737 6.12358C67.3511 6.34203 67.4398 6.60827 67.4398 6.9223C67.4398 7.20902 67.3784 7.49574 67.2556 7.78246C67.1465 8.06918 66.9964 8.30811 66.8054 8.49926C66.628 8.67675 66.4438 8.7655 66.2528 8.7655C66.1164 8.7655 66.014 8.69723 65.9458 8.5607C65.8913 8.42416 65.8503 8.23302 65.823 7.98726C65.8094 7.78246 65.7685 7.61179 65.7003 7.47526C65.6457 7.32507 65.5434 7.24998 65.3933 7.24998C65.2159 7.24998 65.0113 7.36603 64.7793 7.59814C64.5474 7.81659 64.2677 8.16475 63.9402 8.64262C63.8038 8.83377 63.6196 9.10683 63.3877 9.46182C63.1557 9.80315 62.9102 10.1854 62.6509 10.6087C62.3917 11.032 62.1325 11.4552 61.8733 11.8785C61.614 12.3017 61.3889 12.684 61.1979 13.0253C60.8705 13.6124 60.6044 14.0562 60.3998 14.3565C60.1951 14.6569 59.9973 14.8071 59.8063 14.8071Z" fill="#1B426D"/>
<path d="M48.3994 14.7658C48.222 14.7658 48.0378 14.7111 47.8468 14.6019C47.6695 14.5063 47.5194 14.3835 47.3966 14.2333C47.2738 14.0831 47.2124 13.9329 47.2124 13.7827C47.2124 13.3321 47.3488 12.8338 47.6217 12.2877C47.8946 11.7415 48.3107 11.1135 48.8701 10.4035C49.4431 9.67988 50.1798 8.85386 51.0803 7.92543C51.7216 7.28372 52.2878 6.77855 52.7789 6.40991C53.2837 6.02762 53.6589 5.83647 53.9045 5.83647C54.2183 5.83647 54.5526 5.99348 54.9073 6.30751C55.0301 6.44404 55.0915 6.51231 55.0915 6.51231C55.0915 6.51231 55.0983 6.51231 55.112 6.51231C55.1392 6.51231 55.1597 6.50548 55.1734 6.49183C55.187 6.47818 55.2075 6.44404 55.2347 6.38943C55.3712 6.14367 55.4599 5.98666 55.5008 5.91839C55.5417 5.83647 55.5622 5.78186 55.5622 5.75455C55.6304 5.59071 55.7668 5.50879 55.9715 5.50879C56.1625 5.50879 56.3535 5.54975 56.5445 5.63167C56.7492 5.71359 56.9129 5.81599 57.0357 5.93887C57.1721 6.0481 57.2403 6.1505 57.2403 6.24607C57.2403 6.32799 57.2199 6.43039 57.1789 6.55327L55.0506 12.2877C54.9141 12.6836 54.9892 12.8816 55.2757 12.8816C55.4667 12.8816 55.7259 12.7655 56.0534 12.5334C56.3944 12.2877 56.7151 11.9941 57.0152 11.6528C57.0561 11.6255 57.0834 11.6118 57.0971 11.6118C57.1107 11.5982 57.1244 11.5913 57.138 11.5913C57.2062 11.5913 57.2608 11.6187 57.3017 11.6733C57.3427 11.7142 57.3631 11.7825 57.3631 11.8781C57.3631 12.0419 57.2403 12.2808 56.9948 12.5949C56.7628 12.9089 56.4763 13.2161 56.1352 13.5165C55.685 13.9124 55.2347 14.2196 54.7845 14.4381C54.3343 14.6565 53.9454 14.7658 53.618 14.7658C53.4406 14.7658 53.2564 14.7111 53.0654 14.6019C52.8744 14.5063 52.7175 14.3835 52.5947 14.2333C52.4719 14.0694 52.4106 13.9124 52.4106 13.7622C52.4106 13.6393 52.4515 13.4823 52.5333 13.2912C52.5333 13.2775 52.5538 13.2093 52.5947 13.0864C52.6493 12.9499 52.7175 12.786 52.7994 12.5949C52.8813 12.3901 52.9699 12.1921 53.0654 12.0009C53.1609 11.7961 53.2496 11.605 53.3315 11.4275C53.3724 11.3319 53.3724 11.2637 53.3315 11.2227C53.3042 11.1681 53.2633 11.1681 53.2087 11.2227C52.472 12.0692 51.8102 12.7519 51.2236 13.2707C50.6505 13.7895 50.1389 14.1718 49.6887 14.4176C49.2385 14.6497 48.8087 14.7658 48.3994 14.7658ZM50.2208 12.8816C50.48 12.8816 50.8757 12.6563 51.4078 12.2057C51.9399 11.7552 52.5061 11.1681 53.1064 10.4445C53.5702 9.88468 53.9386 9.37951 54.2115 8.92895C54.4844 8.47839 54.6208 8.15071 54.6208 7.94591C54.6208 7.83668 54.498 7.67967 54.2524 7.47487C54.1433 7.3793 54.0205 7.3042 53.884 7.24959C53.7613 7.19498 53.6589 7.16767 53.5771 7.16767C53.3588 7.16767 53.0518 7.29055 52.6561 7.53631C52.2741 7.78207 51.9126 8.06879 51.5715 8.39647C51.244 8.72415 50.9302 9.1201 50.6301 9.58431C50.3299 10.0349 50.0843 10.4923 49.8933 10.9565C49.7023 11.4207 49.6068 11.8235 49.6068 12.1648C49.6068 12.3832 49.6614 12.5607 49.7705 12.6973C49.8797 12.8201 50.0298 12.8816 50.2208 12.8816Z" fill="#1B426D"/>
<path d="M38.7339 14.848C38.6657 14.848 38.6043 14.8207 38.5497 14.7661C38.4951 14.7115 38.4542 14.6432 38.4269 14.5613C38.3996 14.4794 38.386 14.3974 38.386 14.3155C38.386 14.1107 38.4065 13.9059 38.4474 13.7011C38.502 13.4963 38.5702 13.2437 38.652 12.9434L41.5376 3.05152C41.6058 2.81941 41.6741 2.56683 41.7423 2.29376C41.8105 2.00704 41.8446 1.79541 41.8446 1.65888C41.8446 1.52235 41.7559 1.41995 41.5786 1.35168C41.4148 1.28341 41.2511 1.22197 41.0874 1.16736C40.9919 1.14005 40.9032 1.11275 40.8213 1.08544C40.7531 1.04448 40.719 0.996694 40.719 0.94208C40.719 0.887467 40.7395 0.83968 40.7804 0.79872C40.8213 0.744106 40.9168 0.689493 41.0669 0.634879C41.1761 0.59392 41.3261 0.539307 41.5172 0.47104C41.7218 0.402773 41.9333 0.334507 42.1516 0.26624C42.3835 0.18432 42.5882 0.12288 42.7655 0.0819202C42.9565 0.0273067 43.0862 0 43.1544 0C43.2226 0 43.2976 0.00682658 43.3795 0.0204797C43.4613 0.0341329 43.5023 0.0955729 43.5023 0.2048C43.5023 0.314027 43.4886 0.4096 43.4613 0.49152C43.4477 0.57344 43.4272 0.662186 43.4 0.75776L40.6167 10.3834C40.5894 10.4789 40.5894 10.5267 40.6167 10.5267C40.6576 10.5267 40.6986 10.4994 40.7395 10.4448C41.3398 9.55733 41.9606 8.77227 42.6018 8.0896C43.2431 7.39328 43.8502 6.84715 44.4232 6.4512C44.9962 6.05525 45.4874 5.85728 45.8967 5.85728C46.3469 5.85728 46.688 6.00747 46.92 6.30784C47.1655 6.60821 47.2883 6.95637 47.2883 7.35232C47.2883 8.04864 47.1587 8.78592 46.8995 9.56416C46.6539 10.3424 46.3265 11.0865 45.9172 11.7965C45.5079 12.5065 45.0645 13.114 44.5869 13.6192C44.5051 13.7011 44.3823 13.8103 44.2186 13.9469C44.0548 14.0698 43.8638 14.1926 43.6455 14.3155C43.4272 14.4384 43.2021 14.5408 42.9702 14.6227C42.7519 14.7183 42.5472 14.7661 42.3562 14.7661C42.2607 14.7661 42.1448 14.7251 42.0083 14.6432C41.8855 14.5613 41.7764 14.4589 41.6809 14.336C41.599 14.2131 41.5581 14.1039 41.5581 14.0083C41.5581 13.9401 41.5854 13.8581 41.6399 13.7626C41.6945 13.667 41.7627 13.5851 41.8446 13.5168C41.9265 13.4485 42.0083 13.4144 42.0902 13.4144C42.213 13.4144 42.3153 13.4417 42.3972 13.4963C42.4927 13.5373 42.5745 13.5919 42.6427 13.6602C42.7246 13.7284 42.8065 13.7899 42.8883 13.8445C42.9702 13.8991 43.0657 13.9264 43.1748 13.9264C43.4068 13.9264 43.6524 13.7899 43.9116 13.5168C44.1708 13.2437 44.4164 12.8819 44.6483 12.4314C44.8939 11.9808 45.1122 11.4893 45.3032 10.9568C45.4942 10.4107 45.6443 9.86453 45.7534 9.3184C45.8762 8.77227 45.9376 8.26709 45.9376 7.80288C45.9376 7.48885 45.8694 7.24992 45.733 7.08608C45.6102 6.90859 45.4192 6.81984 45.16 6.81984C44.8598 6.81984 44.5187 6.97003 44.1367 7.2704C43.7683 7.55712 43.3795 7.93941 42.9702 8.41728C42.5745 8.89515 42.1857 9.40715 41.8037 9.95328C41.4217 10.4994 41.0737 11.0319 40.7599 11.5507C40.4461 12.0695 40.1937 12.5133 40.0027 12.8819C39.6616 13.5373 39.4024 14.0288 39.2251 14.3565C39.0613 14.6842 38.8976 14.848 38.7339 14.848Z" fill="#1B426D"/>
<path d="M33.1134 14.7661C32.6904 14.7661 32.2948 14.6568 31.9264 14.4384C31.558 14.2063 31.2579 13.8991 31.0259 13.5168C30.8076 13.1208 30.6985 12.6839 30.6985 12.2061C30.7121 11.5917 30.8076 10.9773 30.985 10.3629C31.1624 9.74846 31.4079 9.16819 31.7217 8.62206C32.0492 8.06227 32.4312 7.57075 32.8678 7.1475C33.318 6.71059 33.8228 6.36926 34.3822 6.1235C34.9416 5.86408 35.5419 5.73438 36.1832 5.73438C36.6607 5.73438 37.0359 5.83677 37.3087 6.04157C37.5952 6.23272 37.7385 6.47848 37.7385 6.77885C37.7385 7.02462 37.6566 7.27038 37.4929 7.51614C37.3292 7.76189 37.1587 7.88478 36.9813 7.88478C36.8721 7.88478 36.7766 7.84382 36.6948 7.7619C36.6129 7.66632 36.5106 7.51614 36.3878 7.31134C36.2787 7.09288 36.1422 6.90856 35.9785 6.75838C35.8284 6.59454 35.6579 6.51261 35.4669 6.51261C35.1531 6.51261 34.8461 6.66963 34.5459 6.98365C34.2458 7.28403 33.9661 7.67998 33.7069 8.1715C33.4613 8.64936 33.2566 9.18184 33.0929 9.76894C32.9428 10.3424 32.8678 10.8953 32.8678 11.4278C32.8542 11.9193 32.9633 12.288 33.1952 12.5337C33.4272 12.7658 33.7478 12.8819 34.1571 12.8819C34.5391 12.8819 34.8802 12.8 35.1804 12.6361C35.4805 12.4586 35.7534 12.2334 35.999 11.9603C36.0672 11.8784 36.1286 11.8169 36.1832 11.776C36.2514 11.735 36.3196 11.7145 36.3878 11.7145C36.5106 11.7145 36.572 11.7896 36.572 11.9398C36.572 12.1992 36.4697 12.4928 36.265 12.8205C36.074 13.1481 35.808 13.4622 35.4669 13.7625C35.1258 14.0629 34.7506 14.3018 34.3413 14.4793C33.932 14.6705 33.5227 14.7661 33.1134 14.7661Z" fill="#1B426D"/>
<path d="M21.4115 14.7663C21.2614 14.7663 21.1045 14.698 20.9408 14.5615C20.7907 14.4386 20.6747 14.2884 20.5928 14.1109C20.511 13.9335 20.4905 13.7901 20.5315 13.6809L22.6803 8.49942C22.7758 8.26732 22.8372 8.06935 22.8645 7.90551C22.8918 7.74167 22.8508 7.65974 22.7417 7.65974C22.6735 7.65974 22.5575 7.71436 22.3938 7.82358C22.2437 7.93281 22.0663 8.06934 21.8617 8.23318C21.6707 8.39702 21.4728 8.56769 21.2682 8.74519C21.2409 8.77249 21.1863 8.77932 21.1045 8.76566C21.0363 8.75201 21.0022 8.72471 21.0022 8.68375C21.0022 8.62913 21.0158 8.55404 21.0431 8.45846C21.0704 8.34924 21.1386 8.21953 21.2477 8.06934C21.5888 7.60513 21.964 7.21601 22.3733 6.90198C22.7963 6.58796 23.1919 6.34902 23.5603 6.18518C23.9423 6.00769 24.2288 5.91895 24.4198 5.91895C24.4881 5.91895 24.5631 5.9599 24.645 6.04182C24.7405 6.11009 24.8155 6.19884 24.8701 6.30806C24.9246 6.40364 24.9246 6.49921 24.8701 6.59479C24.4198 7.52321 23.9901 8.46529 23.5808 9.42103C23.1715 10.3768 22.7622 11.3188 22.3529 12.2473C22.2301 12.5203 22.155 12.7729 22.1277 13.005C22.1004 13.2371 22.155 13.3532 22.2915 13.3532C22.4279 13.3532 22.6325 13.2371 22.9054 13.005C23.1783 12.7729 23.4853 12.4725 23.8263 12.1039C24.1811 11.7353 24.5494 11.3393 24.9315 10.9161C25.4499 10.329 25.9479 9.7214 26.4254 9.09334C26.9166 8.46529 27.3395 7.89868 27.6943 7.3935C28.049 6.88833 28.2809 6.53335 28.3901 6.32854C28.4583 6.19201 28.5402 6.10326 28.6357 6.0623C28.7312 6.02134 28.8198 6.00086 28.9017 6.00086C28.9836 6.00086 29.0654 6.04182 29.1473 6.12375C29.2291 6.20567 29.2905 6.30124 29.3315 6.41046C29.386 6.51969 29.3929 6.61527 29.3519 6.69719L26.7324 12.7183C26.6233 12.9777 26.5755 13.1757 26.5891 13.3122C26.6028 13.4488 26.671 13.517 26.7938 13.517C26.9712 13.517 27.2031 13.4215 27.4896 13.2303C27.7761 13.0392 28.0695 12.8207 28.3696 12.5749C28.6698 12.3155 28.9222 12.0834 29.1268 11.8786C29.1405 11.865 29.1609 11.8581 29.1882 11.8581C29.2291 11.8581 29.2701 11.8786 29.311 11.9196C29.3519 11.9469 29.3724 11.9879 29.3724 12.0425C29.3724 12.0698 29.3656 12.0971 29.3519 12.1244C29.3383 12.1517 29.3178 12.1858 29.2905 12.2268C29.2769 12.2677 29.2496 12.3155 29.2087 12.3701C29.1814 12.4248 29.1405 12.4862 29.0859 12.5545C29.045 12.6091 28.9904 12.6773 28.9222 12.7593C28.6629 13.0869 28.3628 13.4078 28.0217 13.7218C27.6806 14.0222 27.3122 14.2748 26.9166 14.4796C26.5346 14.6707 26.1253 14.7663 25.6887 14.7663C25.5113 14.7663 25.3476 14.6503 25.1975 14.4181C25.0611 14.186 25.0338 13.9812 25.1156 13.8037C25.3067 13.3941 25.5113 12.9572 25.7296 12.493C25.9479 12.0288 26.1389 11.5987 26.3026 11.2028C26.48 10.8068 26.6028 10.5133 26.671 10.3221C26.7392 10.1583 26.7324 10.0696 26.6505 10.0559C26.5687 10.0423 26.4936 10.0764 26.4254 10.1583C25.716 10.9365 25.0884 11.6192 24.5426 12.2063C23.9969 12.7797 23.5194 13.2576 23.1101 13.6399C22.7144 14.0085 22.3733 14.2884 22.0868 14.4796C21.8139 14.6707 21.5888 14.7663 21.4115 14.7663Z" fill="#1B426D"/>
<path d="M15.5988 14.7862C15.2713 14.7862 14.9439 14.6838 14.6165 14.479C14.3027 14.2606 14.0366 13.9738 13.8183 13.6189C13.6137 13.2639 13.5182 12.8611 13.5318 12.4105C13.5454 11.8507 13.6341 11.2705 13.7978 10.6697C13.9616 10.069 14.1935 9.48189 14.4937 8.90845C14.7938 8.33501 15.1622 7.82301 15.5988 7.37245C16.0354 6.90824 16.5334 6.5396 17.0927 6.26653C17.6521 5.99347 18.2661 5.85693 18.9346 5.85693C19.3575 5.85693 19.685 5.94568 19.9169 6.12317C20.1625 6.28701 20.2853 6.48499 20.2853 6.71709C20.2853 6.9492 20.2103 7.18813 20.0602 7.43389C19.9101 7.666 19.7532 7.78205 19.5895 7.78205C19.4803 7.78205 19.3848 7.73427 19.303 7.63869C19.2348 7.54312 19.1529 7.40659 19.0574 7.22909C18.9619 7.0516 18.8391 6.89459 18.689 6.75805C18.5526 6.60787 18.382 6.53277 18.1774 6.53277C17.8636 6.53277 17.543 6.71027 17.2155 7.06525C16.8881 7.40659 16.5811 7.85032 16.2946 8.39645C16.0217 8.94259 15.7966 9.52968 15.6192 10.1577C15.4555 10.7858 15.3668 11.3729 15.3532 11.919C15.3532 12.3832 15.4555 12.7246 15.6602 12.943C15.8648 13.1478 16.1445 13.2502 16.4992 13.2502C16.9086 13.2502 17.2565 13.1683 17.543 13.0045C17.8295 12.827 18.0955 12.6017 18.3411 12.3286C18.423 12.2467 18.4912 12.1853 18.5458 12.1443C18.6003 12.1033 18.6617 12.0829 18.7299 12.0829C18.8527 12.0829 18.9141 12.1648 18.9141 12.3286C18.9141 12.5198 18.8186 12.7519 18.6276 13.0249C18.4503 13.298 18.1979 13.5711 17.8704 13.8441C17.5566 14.1172 17.2019 14.3425 16.8062 14.52C16.4242 14.6975 16.0217 14.7862 15.5988 14.7862Z" fill="#1B426D"/>
<path d="M8.17526 14.7661C7.68409 14.7661 7.28843 14.65 6.98828 14.4179C6.67448 14.1858 6.51758 13.8854 6.51758 13.5168C6.51758 13.1754 6.59262 12.9024 6.7427 12.6976C6.89277 12.4791 7.07696 12.3699 7.29525 12.3699C7.39076 12.3699 7.49991 12.4313 7.6227 12.5542C7.74549 12.6634 7.88874 12.7931 8.05247 12.9433C8.22983 13.1072 8.42766 13.2778 8.64596 13.4553C8.87789 13.6328 9.1303 13.7216 9.40317 13.7216C9.67604 13.7216 9.88069 13.6328 10.0171 13.4553C10.1536 13.2778 10.2286 13.0662 10.2422 12.8205C10.2559 12.5883 10.174 12.3016 9.99666 11.9603C9.83294 11.619 9.64875 11.2845 9.4441 10.9568C9.21216 10.6154 9.01433 10.2673 8.85061 9.9123C8.70053 9.54366 8.62549 9.1955 8.62549 8.86781C8.62549 8.49917 8.74146 8.13054 8.9734 7.7619C9.20534 7.39326 9.49867 7.05875 9.8534 6.75838C10.2218 6.44435 10.5765 6.19859 10.9176 6.0211C11.2723 5.82995 11.5657 5.73438 11.7976 5.73438C12.0841 5.73438 12.3638 5.80264 12.6367 5.93917C12.9095 6.07571 13.1346 6.23272 13.312 6.41021C13.4894 6.58771 13.5781 6.74472 13.5781 6.88125C13.5781 7.00413 13.5167 7.16115 13.3939 7.35229C13.2711 7.52979 13.1278 7.6868 12.9641 7.82333C12.814 7.95987 12.6708 8.02813 12.5343 8.02813C12.4115 8.02813 12.2888 7.97352 12.166 7.8643C12.0568 7.75507 11.9545 7.63901 11.859 7.51614C11.7498 7.36595 11.6134 7.23624 11.4497 7.12702C11.2996 7.01779 11.1291 6.96318 10.9381 6.96318C10.7334 6.96318 10.5697 7.03827 10.4469 7.18846C10.3241 7.33864 10.2627 7.51613 10.2627 7.72093C10.2627 7.83016 10.3105 7.98717 10.406 8.19198C10.5151 8.38312 10.6379 8.59475 10.7743 8.82686C10.9244 9.04531 11.0677 9.25694 11.2041 9.46174C11.5179 9.89864 11.7498 10.3014 11.8999 10.6701C12.0636 11.0387 12.1455 11.3869 12.1455 11.7145C12.1455 12.0422 12.0295 12.3835 11.7976 12.7385C11.5657 13.0935 11.2519 13.428 10.8562 13.7421C10.4742 14.0424 10.0512 14.2882 9.58735 14.4793C9.12348 14.6705 8.65278 14.7661 8.17526 14.7661Z" fill="#1B426D"/>
<path d="M2.14884 14.7862C1.83504 14.7862 1.5076 14.677 1.16651 14.4585C0.839072 14.2401 0.559381 13.9534 0.327443 13.5984C0.109148 13.2434 0 12.8884 0 12.5334C0 11.7825 0.143256 11.0179 0.429769 10.2397C0.729924 9.46141 1.13241 8.74461 1.63721 8.08925C2.14202 7.42024 2.71505 6.88093 3.35629 6.47133C4.01117 6.06173 4.69335 5.85693 5.40281 5.85693C5.98947 5.85693 6.43289 5.97981 6.73304 6.22557C7.0332 6.45768 7.18328 6.75805 7.18328 7.12669C7.18328 7.5636 7.04002 7.94589 6.75351 8.27357C6.48064 8.5876 6.11226 8.86067 5.64839 9.09277C5.18451 9.32488 4.67288 9.51603 4.1135 9.66621C3.56776 9.8164 3.0152 9.94611 2.45582 10.0553C2.3876 10.069 2.33303 10.0895 2.2921 10.1168C2.25117 10.1304 2.21706 10.1714 2.18977 10.2397C2.12156 10.4718 2.05334 10.7243 1.98512 10.9974C1.9169 11.2705 1.87597 11.5231 1.86233 11.7552C1.86233 12.233 1.96466 12.6222 2.16931 12.9225C2.3876 13.2093 2.70822 13.3526 3.13117 13.3526C3.58141 13.3526 3.97024 13.2434 4.29769 13.0249C4.62513 12.7928 4.91846 12.5402 5.17769 12.2672C5.31412 12.117 5.43009 12.0419 5.5256 12.0419C5.66203 12.0419 5.73025 12.1102 5.73025 12.2467C5.73025 12.274 5.73025 12.3081 5.73025 12.3491C5.73025 12.3901 5.7166 12.4242 5.68932 12.4515C5.41645 12.9157 5.10265 13.3253 4.74792 13.6803C4.39319 14.0216 3.99753 14.2879 3.56094 14.479C3.13799 14.6838 2.66729 14.7862 2.14884 14.7862ZM2.59908 9.48189C2.80373 9.45459 3.0766 9.39315 3.41768 9.29757C3.75877 9.202 4.09986 9.05864 4.44094 8.86749C4.79567 8.67635 5.09583 8.43741 5.34141 8.15069C5.58699 7.86397 5.70978 7.51581 5.70978 7.10621C5.70978 6.94237 5.66203 6.79219 5.56653 6.65565C5.47102 6.51912 5.33459 6.45085 5.15722 6.45085C4.88435 6.45085 4.59784 6.56008 4.29769 6.77853C3.99753 6.99699 3.71102 7.26323 3.43815 7.57725C3.16528 7.89128 2.94016 8.21213 2.7628 8.53981C2.58543 8.86749 2.48311 9.14056 2.45582 9.35901C2.45582 9.45459 2.50357 9.49555 2.59908 9.48189Z" fill="#1B426D"/>
</svg>
