<svg width="160" height="15" viewBox="0 0 160 15" fill="none" xmlns="http://www.w3.org/2000/svg">
<path d="M154.347 14.809C154.114 14.809 153.889 14.7065 153.67 14.5014C153.451 14.2826 153.342 14.057 153.342 13.8245C153.342 13.7288 153.362 13.6262 153.403 13.5168L157.136 2.70747C157.246 2.42031 157.3 2.18786 157.3 2.01009C157.3 1.81865 157.259 1.65457 157.177 1.51783C157.123 1.42211 157.041 1.32639 156.931 1.23067C156.836 1.13495 156.719 1.05974 156.583 1.00505C156.487 0.964023 156.418 0.916164 156.377 0.861468C156.336 0.806772 156.336 0.758912 156.377 0.717889C156.487 0.663193 156.61 0.615334 156.747 0.574312C156.883 0.519616 157.013 0.471756 157.136 0.430733C157.273 0.389711 157.382 0.362363 157.465 0.348689C157.656 0.293992 157.895 0.239296 158.182 0.184599C158.47 0.129903 158.736 0.0888813 158.982 0.0615326C159.229 0.0205109 159.393 0 159.475 0C159.543 0 159.598 0.0341852 159.639 0.102556C159.693 0.157251 159.721 0.239296 159.721 0.348689C159.707 0.430733 159.68 0.533289 159.639 0.656356C159.611 0.779422 159.577 0.902489 159.536 1.02556L155.536 12.4503C155.509 12.546 155.489 12.6349 155.475 12.7169C155.461 12.799 155.454 12.8742 155.454 12.9425C155.454 13.1476 155.53 13.2502 155.68 13.2502C155.844 13.2502 156.049 13.1613 156.295 12.9836C156.555 12.7921 156.808 12.5665 157.054 12.3067C157.314 12.0332 157.526 11.7871 157.69 11.5683C157.759 11.4862 157.834 11.411 157.916 11.3427C157.998 11.2606 158.059 11.2196 158.1 11.2196C158.169 11.2196 158.21 11.2538 158.223 11.3222C158.237 11.3768 158.244 11.4384 158.244 11.5068C158.244 11.7666 158.148 12.0469 157.957 12.3477C157.779 12.6349 157.533 12.9289 157.218 13.2297C156.904 13.5168 156.569 13.7835 156.213 14.0296C155.872 14.2621 155.53 14.4467 155.188 14.5834C154.86 14.7338 154.579 14.809 154.347 14.809Z" fill="#1B426D"/>
<path d="M143.14 14.8091C142.962 14.8091 142.777 14.7544 142.586 14.645C142.408 14.5493 142.258 14.4262 142.135 14.2758C142.012 14.1254 141.95 13.975 141.95 13.8246C141.95 13.3733 142.087 12.8742 142.36 12.3273C142.634 11.7803 143.051 11.1513 143.612 10.4402C144.186 9.71552 144.924 8.88824 145.827 7.9584C146.469 7.31572 147.037 6.80978 147.529 6.44058C148.035 6.0577 148.411 5.86626 148.657 5.86626C148.972 5.86626 149.307 6.02352 149.662 6.33802C149.785 6.47476 149.847 6.54313 149.847 6.54313C149.847 6.54313 149.854 6.54313 149.868 6.54313C149.895 6.54313 149.915 6.5363 149.929 6.52262C149.943 6.50895 149.963 6.47476 149.991 6.42007C150.127 6.17393 150.216 6.01668 150.257 5.94831C150.298 5.86626 150.319 5.81157 150.319 5.78422C150.387 5.62013 150.524 5.53809 150.729 5.53809C150.92 5.53809 151.112 5.57911 151.303 5.66115C151.508 5.7432 151.672 5.84575 151.796 5.96882C151.932 6.07821 152.001 6.18077 152.001 6.27649C152.001 6.35853 151.98 6.46109 151.939 6.58416L149.806 12.3273C149.669 12.7238 149.744 12.9221 150.032 12.9221C150.223 12.9221 150.483 12.8059 150.811 12.5734C151.153 12.3273 151.474 12.0333 151.775 11.6914C151.816 11.6641 151.843 11.6504 151.857 11.6504C151.871 11.6367 151.884 11.6299 151.898 11.6299C151.966 11.6299 152.021 11.6572 152.062 11.7119C152.103 11.753 152.124 11.8213 152.124 11.9171C152.124 12.0811 152.001 12.3204 151.755 12.6349C151.522 12.9494 151.235 13.2571 150.893 13.5579C150.442 13.9545 149.991 14.2622 149.539 14.4809C149.088 14.6997 148.698 14.8091 148.37 14.8091C148.192 14.8091 148.008 14.7544 147.816 14.645C147.625 14.5493 147.468 14.4262 147.345 14.2758C147.222 14.1117 147.16 13.9545 147.16 13.8041C147.16 13.681 147.201 13.5238 147.283 13.3323C147.283 13.3186 147.304 13.2503 147.345 13.1272C147.399 12.9905 147.468 12.8264 147.55 12.6349C147.632 12.4298 147.721 12.2316 147.816 12.0401C147.912 11.835 148.001 11.6436 148.083 11.4658C148.124 11.3701 148.124 11.3017 148.083 11.2607C148.056 11.206 148.015 11.206 147.96 11.2607C147.222 12.1085 146.558 12.7922 145.97 13.3118C145.396 13.8314 144.883 14.2143 144.432 14.4604C143.981 14.6929 143.55 14.8091 143.14 14.8091ZM144.965 12.9221C145.225 12.9221 145.622 12.6965 146.155 12.2452C146.688 11.794 147.256 11.206 147.857 10.4813C148.322 9.92063 148.692 9.41469 148.965 8.96345C149.238 8.5122 149.375 8.18402 149.375 7.97891C149.375 7.86952 149.252 7.71227 149.006 7.50716C148.897 7.41144 148.774 7.33623 148.637 7.28153C148.514 7.22684 148.411 7.19949 148.329 7.19949C148.11 7.19949 147.803 7.32256 147.406 7.56869C147.023 7.81482 146.661 8.10198 146.319 8.43016C145.991 8.75834 145.676 9.15489 145.376 9.6198C145.075 10.071 144.829 10.5291 144.637 10.9941C144.446 11.459 144.35 11.8624 144.35 12.2042C144.35 12.423 144.405 12.6008 144.514 12.7375C144.623 12.8606 144.774 12.9221 144.965 12.9221Z" fill="#1B426D"/>
<path d="M132.795 14.8501C132.713 14.8501 132.631 14.8159 132.549 14.7475C132.481 14.6928 132.419 14.6176 132.365 14.5219C132.31 14.4398 132.269 14.3441 132.241 14.2347C132.228 14.1253 132.241 14.0296 132.282 13.9476L134.662 8.12241C134.908 7.52075 134.922 7.21992 134.703 7.21992C134.566 7.21992 134.422 7.24043 134.272 7.28145C134.122 7.3088 133.958 7.39085 133.78 7.52759C133.602 7.66433 133.404 7.87628 133.185 8.16343C133.13 8.21813 133.069 8.24548 133 8.24548C132.946 8.2318 132.905 8.17711 132.877 8.08139C132.877 7.99934 132.898 7.89679 132.939 7.77372C132.994 7.63698 133.055 7.50708 133.123 7.38401C133.192 7.24727 133.253 7.13788 133.308 7.05583C133.513 6.74133 133.787 6.49519 134.128 6.31743C134.484 6.13967 134.894 6.04395 135.359 6.03027C135.51 6.03027 135.646 6.0713 135.769 6.15334C135.892 6.22171 135.981 6.32427 136.036 6.46101C136.104 6.59775 136.104 6.74816 136.036 6.91225L134.682 10.3991C134.641 10.4949 134.648 10.5496 134.703 10.5632C134.771 10.5769 134.826 10.5496 134.867 10.4812C135.428 9.52401 135.995 8.71723 136.569 8.06088C137.157 7.39085 137.718 6.8849 138.251 6.54305C138.785 6.2012 139.256 6.03027 139.666 6.03027C139.954 6.03027 140.2 6.13283 140.405 6.33794C140.624 6.52938 140.76 6.79602 140.815 7.13788C140.883 7.46605 140.822 7.84893 140.631 8.2865L138.743 12.7579C138.538 13.2502 138.573 13.4963 138.846 13.4963C139.01 13.4963 139.208 13.4348 139.441 13.3117C139.687 13.1887 139.933 13.0451 140.179 12.881C140.425 12.7032 140.637 12.546 140.815 12.4092C141.007 12.2588 141.13 12.1563 141.184 12.1016C141.198 12.0879 141.205 12.0811 141.205 12.0811C141.219 12.0811 141.232 12.0811 141.246 12.0811C141.287 12.0811 141.321 12.1016 141.348 12.1426C141.389 12.1699 141.41 12.211 141.41 12.2657C141.41 12.3751 141.383 12.4708 141.328 12.5528C140.972 12.9767 140.589 13.3596 140.179 13.7014C139.783 14.0433 139.366 14.3168 138.928 14.5219C138.504 14.7133 138.073 14.809 137.636 14.809C137.513 14.809 137.39 14.7612 137.267 14.6655C137.144 14.5834 137.048 14.474 136.98 14.3373C136.925 14.2005 136.932 14.057 137 13.9066C137.397 12.9904 137.793 12.0811 138.19 11.1786C138.6 10.2624 138.983 9.34624 139.338 8.43008C139.557 7.86944 139.632 7.47973 139.564 7.26094C139.496 7.02848 139.366 6.90542 139.174 6.89174C139.024 6.87807 138.846 6.93276 138.641 7.05583C138.436 7.16522 138.203 7.34299 137.944 7.58912C137.684 7.82158 137.403 8.12241 137.103 8.49161C136.939 8.68305 136.72 8.98388 136.446 9.3941C136.173 9.79065 135.865 10.2556 135.523 10.7889C135.181 11.3085 134.826 11.8691 134.457 12.4708C134.101 13.0588 133.759 13.6399 133.431 14.2142C133.308 14.433 133.199 14.5903 133.103 14.686C133.007 14.7954 132.905 14.8501 132.795 14.8501Z" fill="#1B426D"/>
<path d="M125.501 14.8088C125.05 14.8088 124.619 14.6926 124.209 14.4602C123.812 14.214 123.491 13.8927 123.245 13.4961C123.012 13.0859 122.896 12.621 122.896 12.1014C122.896 11.4587 123.026 10.775 123.286 10.0503C123.559 9.32553 123.942 8.64183 124.434 7.99914C124.927 7.34279 125.515 6.8095 126.198 6.39927C126.896 5.97538 127.668 5.76343 128.516 5.76343C129.35 5.76343 130.013 6.0164 130.506 6.52234C131.012 7.01461 131.265 7.68464 131.265 8.53243C131.265 9.14777 131.135 9.8178 130.875 10.5425C130.615 11.2673 130.232 11.9578 129.726 12.6142C129.22 13.2568 128.612 13.7833 127.901 14.1935C127.203 14.6037 126.403 14.8088 125.501 14.8088ZM125.891 14.0704C126.178 14.0704 126.465 13.92 126.752 13.6192C127.053 13.3184 127.34 12.9287 127.614 12.4501C127.887 11.9578 128.126 11.4177 128.331 10.8297C128.55 10.2417 128.721 9.65371 128.844 9.06572C128.981 8.47774 129.049 7.94445 129.049 7.46585C129.049 7.16502 128.995 6.92573 128.885 6.74796C128.776 6.5702 128.578 6.48132 128.29 6.48132C128.031 6.48132 127.75 6.6249 127.449 6.91205C127.162 7.19921 126.882 7.58208 126.609 8.06067C126.335 8.52559 126.082 9.05205 125.85 9.64003C125.631 10.2143 125.453 10.7955 125.316 11.3835C125.18 11.9715 125.111 12.5253 125.111 13.0449C125.111 13.4004 125.18 13.6602 125.316 13.8243C125.467 13.9884 125.658 14.0704 125.891 14.0704Z" fill="#1B426D"/>
<path d="M117.9 14.809C117.613 14.809 117.36 14.7065 117.141 14.5014C116.922 14.2826 116.813 14.0638 116.813 13.845C116.813 13.7767 116.813 13.7151 116.813 13.6604C116.827 13.5921 116.854 13.5168 116.895 13.4348C117.346 12.4776 117.75 11.5478 118.105 10.6453C118.461 9.7428 118.796 8.90184 119.11 8.12242C119.151 8.01302 119.124 7.95833 119.028 7.95833C118.932 7.95833 118.803 7.99251 118.638 8.06088C118.474 8.12925 118.303 8.21813 118.126 8.32753C117.948 8.42324 117.777 8.5258 117.613 8.63519C117.476 8.71724 117.367 8.73775 117.285 8.69673C117.216 8.64203 117.182 8.56682 117.182 8.47111C117.182 8.38906 117.257 8.25916 117.408 8.08139C117.572 7.90363 117.777 7.71219 118.023 7.50708C118.283 7.2883 118.57 7.06951 118.885 6.85073C119.199 6.63194 119.514 6.43366 119.828 6.2559C120.143 6.06446 120.43 5.91405 120.69 5.80466C120.867 5.73629 121.045 5.74996 121.223 5.84568C121.401 5.9414 121.544 6.0713 121.654 6.23539C121.763 6.38581 121.79 6.52255 121.736 6.64561L119.377 12.4092C119.336 12.4776 119.309 12.5528 119.295 12.6349C119.281 12.7032 119.274 12.7648 119.274 12.8195C119.274 12.8878 119.295 12.9357 119.336 12.963C119.391 12.9904 119.438 13.0041 119.479 13.0041C119.63 13.0041 119.828 12.922 120.074 12.7579C120.334 12.5802 120.601 12.3751 120.874 12.1426C121.161 11.9101 121.414 11.6845 121.633 11.4657C121.66 11.4247 121.688 11.4042 121.715 11.4042C121.77 11.4042 121.818 11.4315 121.859 11.4862C121.9 11.5273 121.92 11.5751 121.92 11.6298C121.92 11.876 121.777 12.1768 121.49 12.5323C121.216 12.8742 120.867 13.2229 120.443 13.5784C120.02 13.9202 119.575 14.2142 119.11 14.4604C118.659 14.6928 118.256 14.809 117.9 14.809ZM121.797 4.12274C121.524 4.12274 121.298 4.02019 121.12 3.81508C120.943 3.59629 120.854 3.35699 120.854 3.09718C120.854 2.67329 120.997 2.30409 121.284 1.98958C121.585 1.6614 121.954 1.49731 122.392 1.49731C122.679 1.49731 122.905 1.62038 123.069 1.86652C123.233 2.09898 123.315 2.35195 123.315 2.62543C123.315 3.0083 123.165 3.35699 122.864 3.6715C122.577 3.97233 122.221 4.12274 121.797 4.12274Z" fill="#1B426D"/>
<path d="M111.881 14.8296C111.635 14.8296 111.375 14.7338 111.101 14.5424C110.841 14.3646 110.616 14.1185 110.424 13.804C110.247 13.4758 110.158 13.0998 110.158 12.6759C110.171 12.1836 110.253 11.6435 110.404 11.0555C110.554 10.4538 110.773 9.85902 111.06 9.27103C111.347 8.68305 111.703 8.14292 112.127 7.65065C112.564 7.15839 113.063 6.76867 113.624 6.48152C114.185 6.18069 114.814 6.03027 115.511 6.03027C115.88 6.03027 116.161 6.09864 116.352 6.23539C116.544 6.35845 116.639 6.50887 116.639 6.68663C116.639 6.90542 116.571 7.13104 116.434 7.3635C116.311 7.58228 116.174 7.69168 116.024 7.69168C115.915 7.69168 115.819 7.64382 115.737 7.5481C115.668 7.45238 115.6 7.33615 115.532 7.19941C115.45 7.04899 115.347 6.91225 115.224 6.78919C115.101 6.65245 114.923 6.58408 114.691 6.58408C114.363 6.58408 114.021 6.78235 113.665 7.1789C113.31 7.57545 112.975 8.08139 112.66 8.69672C112.359 9.31206 112.113 9.96158 111.922 10.6453C111.73 11.329 111.635 11.9512 111.635 12.5118C111.635 12.963 111.723 13.2707 111.901 13.4348C112.079 13.5989 112.318 13.6809 112.619 13.6809C113.057 13.6809 113.405 13.5989 113.665 13.4348C113.925 13.257 114.185 13.0451 114.445 12.799C114.54 12.7032 114.609 12.6349 114.65 12.5938C114.704 12.5528 114.773 12.5323 114.855 12.5323C114.964 12.5323 115.019 12.6212 115.019 12.799C115.019 12.9083 114.93 13.0724 114.752 13.2912C114.588 13.51 114.356 13.7425 114.055 13.9886C113.768 14.2211 113.433 14.4193 113.05 14.5834C112.681 14.7475 112.291 14.8296 111.881 14.8296Z" fill="#1B426D"/>
<path d="M104.041 14.8091C103.645 14.8091 103.269 14.6997 102.913 14.4809C102.571 14.2484 102.291 13.9408 102.072 13.5579C101.867 13.1613 101.765 12.7374 101.765 12.2862C101.765 11.6435 101.895 10.953 102.154 10.2146C102.414 9.47617 102.783 8.77879 103.262 8.12243C103.741 7.46608 104.301 6.93279 104.944 6.52256C105.587 6.09867 106.291 5.88672 107.057 5.88672C107.822 5.88672 108.424 6.13285 108.862 6.62512C109.299 7.10371 109.518 7.72589 109.518 8.49164C109.518 9.10697 109.388 9.78384 109.128 10.5222C108.882 11.247 108.52 11.9375 108.041 12.5939C107.562 13.2365 106.988 13.7698 106.318 14.1937C105.648 14.604 104.889 14.8091 104.041 14.8091ZM104.39 14.1322C104.691 14.1322 104.999 13.9886 105.313 13.7015C105.628 13.4006 105.928 13.0109 106.216 12.5323C106.516 12.0537 106.776 11.5273 106.995 10.953C107.227 10.3787 107.412 9.80435 107.549 9.23004C107.686 8.65572 107.754 8.13611 107.754 7.67119C107.754 7.32934 107.692 7.06269 107.569 6.87125C107.46 6.66614 107.248 6.56359 106.933 6.56359C106.646 6.56359 106.345 6.70033 106.031 6.97381C105.716 7.24729 105.409 7.61649 105.108 8.08141C104.821 8.53266 104.561 9.0386 104.329 9.59924C104.096 10.1462 103.911 10.7137 103.775 11.3017C103.638 11.8896 103.57 12.4503 103.57 12.9836C103.57 13.3801 103.638 13.6741 103.775 13.8656C103.925 14.0433 104.13 14.1322 104.39 14.1322Z" fill="#1B426D"/>
<path d="M86.5783 14.8294C86.4825 14.8294 86.3595 14.7883 86.2091 14.7063C86.0723 14.6242 85.9493 14.508 85.8399 14.3576C85.7441 14.2072 85.6963 14.0431 85.6963 13.8653C85.6963 13.797 85.7168 13.6876 85.7578 13.5372C85.8125 13.3731 85.8809 13.1816 85.9629 12.9628L88.0346 7.85556C88.1029 7.70515 88.1098 7.58208 88.0551 7.48636C88.0004 7.37697 87.8978 7.32228 87.7474 7.32228C87.597 7.32228 87.385 7.37013 87.1116 7.46585C86.8381 7.5479 86.5372 7.78036 86.2091 8.16323C86.1544 8.2316 86.0792 8.26579 85.9834 8.26579C85.8877 8.25211 85.833 8.18374 85.8194 8.06067C85.8194 7.96496 85.8535 7.84189 85.9219 7.69147C85.9903 7.54106 86.0792 7.39065 86.1886 7.24023C86.2979 7.07614 86.3937 6.95307 86.4757 6.87103C86.7902 6.5702 87.1252 6.31723 87.4808 6.11212C87.85 5.89333 88.3286 5.7771 88.9165 5.76343C89.19 5.76343 89.4225 5.8318 89.6139 5.96854C89.819 6.10528 89.9489 6.29672 90.0036 6.54285C90.0583 6.78898 90.0241 7.0693 89.9011 7.38381L88.7319 10.1938C88.6909 10.2896 88.7046 10.3443 88.773 10.3579C88.8413 10.3716 88.896 10.3374 88.937 10.2554C89.4703 9.3939 89.99 8.62815 90.4959 7.95812C91.0018 7.27442 91.5009 6.74113 91.9932 6.35825C92.4992 5.9617 93.0188 5.76343 93.5521 5.76343C93.9896 5.76343 94.3246 5.89333 94.5571 6.15314C94.7896 6.41295 94.9126 6.7548 94.9263 7.1787C94.9537 7.58892 94.8579 8.02649 94.6391 8.49141L94.2084 9.64003C94.1537 9.73575 94.1674 9.79045 94.2494 9.80412C94.3315 9.8178 94.3999 9.78361 94.4545 9.70157C94.9195 8.93582 95.3912 8.25895 95.8698 7.67096C96.3621 7.08298 96.8612 6.61806 97.3671 6.27621C97.8731 5.93435 98.3859 5.76343 98.9055 5.76343C99.343 5.76343 99.6644 5.89333 99.8695 6.15314C100.075 6.41295 100.17 6.7548 100.157 7.1787C100.157 7.60259 100.054 8.06751 99.849 8.57345L98.3106 12.286C98.1329 12.7372 98.1602 12.9628 98.3927 12.9628C98.5021 12.9628 98.6457 12.9081 98.8234 12.7987C99.0012 12.6894 99.1858 12.5595 99.3772 12.409C99.5687 12.2586 99.7396 12.115 99.89 11.9783C100.054 11.8416 100.17 11.739 100.239 11.6706C100.293 11.6296 100.341 11.5886 100.382 11.5476C100.437 11.4929 100.485 11.4655 100.526 11.4655C100.567 11.4655 100.608 11.4929 100.649 11.5476C100.69 11.5886 100.71 11.6365 100.71 11.6911C100.697 11.8279 100.663 11.9578 100.608 12.0809C100.567 12.2039 100.478 12.3338 100.341 12.4706C99.7943 13.1133 99.1721 13.6671 98.4747 14.132C97.7774 14.5832 97.0595 14.8088 96.3211 14.8088C96.2117 14.8088 96.0749 14.761 95.9108 14.6653C95.7468 14.5832 95.6168 14.467 95.5211 14.3166C95.4254 14.1662 95.4117 14.0089 95.4801 13.8448L98.126 7.69147C98.2354 7.45902 98.2423 7.27442 98.1466 7.13767C98.0645 7.00093 97.962 6.93256 97.8389 6.93256C97.6475 6.91889 97.4082 7.04196 97.121 7.30176C96.8338 7.5479 96.5057 7.9171 96.1365 8.40937C95.904 8.75122 95.61 9.19563 95.2545 9.74259C94.899 10.2896 94.5298 10.8775 94.1469 11.5065C93.764 12.1219 93.3948 12.7304 93.0393 13.332C92.8615 13.6329 92.6632 13.8995 92.4445 14.132C92.2257 14.3644 92.0137 14.5354 91.8086 14.6448C91.6172 14.7678 91.4531 14.8294 91.3163 14.8294C91.2069 14.8294 91.0907 14.7883 90.9677 14.7063C90.8583 14.6242 90.7557 14.5217 90.66 14.3986C90.5779 14.2619 90.5369 14.1388 90.5369 14.0294C90.5369 13.961 90.5643 13.8243 90.619 13.6192C90.6737 13.4141 90.7489 13.1748 90.8446 12.9013L92.9572 7.62994C93.0666 7.37013 93.0735 7.18553 92.9777 7.07614C92.8957 6.95307 92.8 6.89154 92.6906 6.89154C92.4992 6.87787 92.2462 7.00777 91.9317 7.28125C91.6172 7.55473 91.248 7.97179 90.8241 8.53243C90.6326 8.77856 90.4207 9.08623 90.1882 9.45543C89.9558 9.82463 89.7096 10.228 89.4498 10.6656C89.2037 11.0895 88.9507 11.5271 88.6909 11.9783C88.4448 12.4295 88.2123 12.8534 87.9935 13.25C87.7064 13.7833 87.4534 14.1798 87.2346 14.4396C87.0295 14.6994 86.8107 14.8294 86.5783 14.8294Z" fill="#1B426D"/>
<path d="M79.8002 14.8296C79.4856 14.8296 79.1575 14.7202 78.8156 14.5014C78.4874 14.2826 78.2071 13.9955 77.9747 13.6399C77.7559 13.2844 77.6465 12.9289 77.6465 12.5734C77.6465 11.8213 77.7901 11.0555 78.0772 10.2761C78.378 9.49668 78.7814 8.77879 79.2874 8.12243C79.7933 7.4524 80.3676 6.91228 81.0103 6.50205C81.6667 6.09183 82.3504 5.88672 83.0614 5.88672C83.6494 5.88672 84.0938 6.00979 84.3947 6.25592C84.6955 6.48838 84.8459 6.78921 84.8459 7.15841C84.8459 7.59598 84.7023 7.97886 84.4152 8.30704C84.1417 8.62154 83.7725 8.89502 83.3076 9.12748C82.8426 9.35994 82.3299 9.55138 81.7692 9.70179C81.2223 9.85221 80.6685 9.98211 80.1078 10.0915C80.0394 10.1052 79.9848 10.1257 79.9437 10.153C79.9027 10.1667 79.8685 10.2077 79.8412 10.2761C79.7728 10.5086 79.7044 10.7615 79.6361 11.035C79.5677 11.3085 79.5267 11.5615 79.513 11.7939C79.513 12.2725 79.6156 12.6622 79.8207 12.9631C80.0395 13.2502 80.3608 13.3938 80.7847 13.3938C81.2359 13.3938 81.6256 13.2844 81.9538 13.0656C82.282 12.8332 82.576 12.5802 82.8358 12.3067C82.9725 12.1563 83.0888 12.0811 83.1845 12.0811C83.3212 12.0811 83.3896 12.1495 83.3896 12.2862C83.3896 12.3135 83.3896 12.3477 83.3896 12.3888C83.3896 12.4298 83.3759 12.464 83.3486 12.4913C83.0751 12.9562 82.7606 13.3664 82.4051 13.722C82.0495 14.0638 81.653 14.3305 81.2154 14.5219C80.7915 14.727 80.3198 14.8296 79.8002 14.8296ZM80.2514 9.51719C80.4565 9.48984 80.73 9.42831 81.0718 9.33259C81.4137 9.23687 81.7556 9.0933 82.0974 8.90186C82.4529 8.71042 82.7538 8.47112 82.9999 8.18397C83.246 7.89681 83.3691 7.54812 83.3691 7.1379C83.3691 6.97381 83.3212 6.82339 83.2255 6.68665C83.1298 6.54991 82.9931 6.48154 82.8153 6.48154C82.5418 6.48154 82.2547 6.59094 81.9538 6.80972C81.653 7.02851 81.3658 7.29515 81.0924 7.60966C80.8189 7.92416 80.5933 8.2455 80.4155 8.57368C80.2377 8.90186 80.1352 9.17534 80.1078 9.39413C80.1078 9.48984 80.1557 9.53087 80.2514 9.51719Z" fill="#1B426D"/>
<path d="M67.2455 14.8091C66.8489 14.8091 66.4729 14.6997 66.1174 14.4809C65.7755 14.2484 65.4952 13.9408 65.2764 13.5579C65.0713 13.1613 64.9688 12.7374 64.9688 12.2862C64.9688 11.6435 65.0987 10.953 65.3585 10.2146C65.6183 9.47617 65.9875 8.77879 66.4661 8.12243C66.9447 7.46608 67.5053 6.93279 68.148 6.52256C68.7907 6.09867 69.4949 5.88672 70.2606 5.88672C71.0264 5.88672 71.628 6.13285 72.0656 6.62512C72.5032 7.10371 72.722 7.72589 72.722 8.49164C72.722 9.10697 72.5921 9.78384 72.3323 10.5222C72.0861 11.247 71.7238 11.9375 71.2452 12.5939C70.7666 13.2365 70.1923 13.7698 69.5222 14.1937C68.8522 14.604 68.0933 14.8091 67.2455 14.8091ZM67.5942 14.1322C67.895 14.1322 68.2027 13.9886 68.5172 13.7015C68.8317 13.4006 69.1325 13.0109 69.4197 12.5323C69.7205 12.0537 69.9803 11.5273 70.1991 10.953C70.4316 10.3787 70.6162 9.80435 70.7529 9.23004C70.8896 8.65572 70.958 8.13611 70.958 7.67119C70.958 7.32934 70.8965 7.06269 70.7734 6.87125C70.664 6.66614 70.4521 6.56359 70.1376 6.56359C69.8504 6.56359 69.5496 6.70033 69.2351 6.97381C68.9206 7.24729 68.6129 7.61649 68.3121 8.08141C68.0249 8.53266 67.7651 9.0386 67.5326 9.59924C67.3002 10.1462 67.1156 10.7137 66.9788 11.3017C66.8421 11.8896 66.7737 12.4503 66.7737 12.9836C66.7737 13.3801 66.8421 13.6741 66.9788 13.8656C67.1293 14.0433 67.3344 14.1322 67.5942 14.1322Z" fill="#1B426D"/>
<path d="M55.0027 14.809C54.5514 14.809 54.1822 14.6586 53.8951 14.3578C53.6079 14.0433 53.4644 13.6467 53.4644 13.1681C53.4644 12.6622 53.5669 12.1084 53.772 11.5067C53.9771 10.8914 54.2643 10.2692 54.6335 9.64023C55.0164 8.99755 55.4539 8.38222 55.9462 7.79423C56.5068 7.13787 57.0675 6.63193 57.6281 6.2764C58.2024 5.9072 58.7289 5.7226 59.2075 5.7226C59.4946 5.7226 59.7476 5.78414 59.9664 5.9072C60.1989 6.03027 60.4655 6.18752 60.7663 6.37896C60.9304 6.47468 61.033 6.53621 61.074 6.56356C61.115 6.57723 61.1424 6.58407 61.156 6.58407C61.2107 6.58407 61.2518 6.52937 61.2791 6.41998L62.3867 2.83053C62.4688 2.5844 62.5234 2.40663 62.5508 2.29724C62.5781 2.17417 62.5987 2.09897 62.6123 2.07162C62.626 2.04427 62.626 2.02376 62.6123 2.01009C62.6123 1.99641 62.6123 1.9759 62.6123 1.94855C62.6123 1.79814 62.5508 1.66823 62.4277 1.55884C62.3183 1.44945 62.1269 1.34689 61.8534 1.25117C61.6346 1.16913 61.4979 1.11443 61.4432 1.08708C61.3885 1.04606 61.3611 0.998202 61.3611 0.943505C61.3611 0.847787 61.409 0.77258 61.5047 0.717883C61.6004 0.663187 61.7645 0.601653 61.997 0.533283C62.1748 0.49226 62.4072 0.444401 62.6944 0.389706C62.9815 0.321335 63.2755 0.266639 63.5764 0.225616C63.8909 0.17092 64.1643 0.129897 64.3968 0.102549C64.6293 0.0615269 64.7865 0.0410156 64.8686 0.0410156C65.1557 0.0410156 65.2993 0.136734 65.2993 0.328172C65.2993 0.42389 65.2856 0.519609 65.2583 0.615328C65.2446 0.711047 65.2104 0.847787 65.1557 1.02555L61.5663 12.2041C61.5389 12.2862 61.5184 12.3614 61.5047 12.4297C61.491 12.4981 61.4842 12.5665 61.4842 12.6349C61.4842 12.8126 61.5457 12.9015 61.6688 12.9015C61.8056 12.9015 61.9833 12.84 62.2021 12.7169C62.4209 12.5938 62.6533 12.4297 62.8995 12.2246C63.1456 12.0059 63.3644 11.7871 63.5558 11.5683C63.5832 11.5273 63.6037 11.5067 63.6174 11.5067C63.631 11.4931 63.6516 11.4862 63.6789 11.4862C63.8293 11.4862 63.8977 11.5751 63.884 11.7529C63.884 11.9306 63.7951 12.1563 63.6174 12.4297C63.4396 12.6896 63.2072 12.9562 62.92 13.2297C62.6328 13.5032 62.3183 13.763 61.9765 14.0091C61.6346 14.2416 61.3064 14.433 60.9919 14.5834C60.6774 14.7338 60.404 14.809 60.1715 14.809C59.9801 14.809 59.7886 14.7543 59.5972 14.645C59.4194 14.5356 59.269 14.3988 59.1459 14.2347C59.0229 14.0706 58.9613 13.9065 58.9613 13.7425C58.9613 13.6604 58.9887 13.4963 59.0434 13.2502C59.0981 13.0998 59.1665 12.9152 59.2485 12.6964C59.3305 12.4776 59.4057 12.2657 59.4741 12.0605C59.5562 11.8554 59.6177 11.705 59.6587 11.6093C59.7134 11.5136 59.7203 11.5273 59.6792 11.6503C59.7203 11.5409 59.7134 11.4726 59.6587 11.4452C59.6177 11.4042 59.5698 11.4315 59.5151 11.5273C58.5716 12.6759 57.7443 13.51 57.0333 14.0296C56.3222 14.5492 55.6454 14.809 55.0027 14.809ZM56.418 13.1476C56.7325 13.1476 57.0743 13.0314 57.4435 12.7989C57.8264 12.5528 58.2024 12.2315 58.5716 11.8349C58.9408 11.4247 59.2827 10.9871 59.5972 10.5222C59.9254 10.0436 60.1783 9.56502 60.3561 9.08643C60.5475 8.60784 60.6433 8.1771 60.6433 7.79423C60.6433 7.41135 60.5612 7.1242 60.3971 6.93276C60.2467 6.72765 60.0211 6.62509 59.7203 6.62509C59.4604 6.62509 59.1528 6.76183 58.7973 7.03532C58.4554 7.29512 58.1067 7.65065 57.7512 8.1019C57.3957 8.53947 57.0675 9.01806 56.7666 9.53768C56.4658 10.0436 56.2265 10.5564 56.0488 11.076C55.871 11.5956 55.7821 12.0469 55.7821 12.4297C55.7821 12.6759 55.83 12.8605 55.9257 12.9835C56.0351 13.0929 56.1992 13.1476 56.418 13.1476Z" fill="#1B426D"/>
<path d="M48.7892 14.809C48.5567 14.809 48.3653 14.7338 48.2149 14.5834C48.0645 14.4329 47.9893 14.2757 47.9893 14.1116C47.9893 14.0569 47.9893 14.0022 47.9893 13.9475C48.0029 13.8928 48.0234 13.8381 48.0508 13.7834C48.6114 12.6485 49.0832 11.5819 49.4661 10.5837C49.8489 9.5718 50.1908 8.68982 50.4916 7.93774C50.5463 7.77365 50.5121 7.69161 50.3891 7.69161C50.3207 7.69161 50.184 7.73263 49.9788 7.81467C49.7874 7.88305 49.5823 7.97876 49.3635 8.10183C49.1447 8.2249 48.9533 8.34796 48.7892 8.47103C48.7208 8.52573 48.6525 8.5394 48.5841 8.51205C48.5157 8.48471 48.4815 8.43684 48.4815 8.36847C48.4815 8.3001 48.5294 8.20439 48.6251 8.08132C48.7345 7.94458 48.8781 7.79416 49.0558 7.63007C49.2473 7.46598 49.4729 7.29506 49.7327 7.11729C49.9925 6.92586 50.2728 6.74126 50.5737 6.56349C50.8882 6.37206 51.2163 6.20113 51.5582 6.05072C51.6813 5.99602 51.8043 6.00969 51.9274 6.09174C52.0505 6.17378 52.1462 6.27634 52.2146 6.39941C52.2966 6.52247 52.3239 6.61819 52.2966 6.68656L49.7942 12.6143C49.7395 12.7237 49.6985 12.8331 49.6712 12.9425C49.6575 13.0382 49.6507 13.1271 49.6507 13.2091C49.6507 13.3048 49.6848 13.3732 49.7532 13.4142C49.8353 13.4416 49.9105 13.4552 49.9788 13.4552C50.1703 13.4552 50.3891 13.3664 50.6352 13.1886C50.8813 12.9972 51.1411 12.7715 51.4146 12.5117C51.7018 12.2382 51.9753 11.9716 52.2351 11.7118C52.2624 11.6844 52.2898 11.6708 52.3171 11.6708C52.3445 11.6708 52.3718 11.6844 52.3992 11.7118C52.4265 11.7255 52.4402 11.746 52.4402 11.7733C52.4402 11.9921 52.3103 12.2724 52.0505 12.6143C51.7907 12.9425 51.4625 13.2775 51.0659 13.6193C50.6831 13.9475 50.2865 14.2278 49.8763 14.4603C49.4661 14.6927 49.1037 14.809 48.7892 14.809ZM52.9324 3.9996C52.7273 3.9996 52.5564 3.91756 52.4197 3.75347C52.2829 3.58938 52.2146 3.40478 52.2146 3.19967C52.2146 2.87149 52.3239 2.58433 52.5427 2.3382C52.7615 2.07839 53.035 1.94849 53.3632 1.94849C53.582 1.94849 53.7529 2.0442 53.876 2.23564C53.999 2.41341 54.0606 2.61168 54.0606 2.83047C54.0606 3.1313 53.9512 3.40478 53.7324 3.65091C53.5136 3.88337 53.2469 3.9996 52.9324 3.9996Z" fill="#1B426D"/>
<path d="M40.3044 14.8296C40.195 14.8296 40.0582 14.7954 39.8941 14.727C39.7437 14.6724 39.6138 14.5835 39.5044 14.4604C39.395 14.3373 39.3403 14.2006 39.3403 14.0502C39.3403 13.9271 39.3608 13.7904 39.4019 13.64C39.4566 13.4895 39.5181 13.3049 39.5865 13.0862L41.5966 7.85581C41.6649 7.7054 41.6854 7.5755 41.6581 7.4661C41.6307 7.35671 41.5487 7.30201 41.412 7.30201C41.1522 7.30201 40.9334 7.34987 40.7556 7.44559C40.5915 7.52764 40.4274 7.63019 40.2633 7.75326C40.195 7.80796 40.1129 7.82847 40.0172 7.81479C39.9215 7.80112 39.8668 7.73959 39.8531 7.63019C39.8394 7.41141 39.9352 7.18578 40.1403 6.95332C40.3454 6.70719 40.5984 6.48841 40.8992 6.29697C41.159 6.14655 41.4393 6.02349 41.7401 5.92777C42.0546 5.81837 42.3623 5.76368 42.6631 5.76368C43.046 5.76368 43.3127 5.86623 43.4631 6.07135C43.6135 6.27646 43.6682 6.54994 43.6272 6.89179C43.5998 7.23364 43.4973 7.63019 43.3195 8.08144L42.4785 10.0915C42.4375 10.1872 42.4512 10.2488 42.5196 10.2761C42.6016 10.2898 42.67 10.2488 42.7247 10.1531C43.2306 9.27792 43.7229 8.51217 44.2015 7.85581C44.6937 7.18578 45.1792 6.66617 45.6578 6.29697C46.1364 5.91409 46.5944 5.72266 47.032 5.72266C47.4286 5.72266 47.7294 5.84572 47.9345 6.09186C48.1396 6.32432 48.2422 6.60464 48.2422 6.93281C48.2422 7.26099 48.167 7.58233 48.0165 7.89684C47.8798 8.21134 47.702 8.46431 47.4833 8.65575C47.2781 8.84719 47.073 8.94291 46.8679 8.94291C46.7312 8.94291 46.6218 8.87454 46.5397 8.7378C46.4714 8.60105 46.4167 8.40278 46.3757 8.14297C46.3483 7.91051 46.3004 7.71907 46.2321 7.56866C46.1637 7.40457 46.0475 7.32253 45.8834 7.32253C45.6783 7.32253 45.4527 7.45927 45.2065 7.73275C44.9741 7.99256 44.6937 8.37543 44.3656 8.88137C44.2562 9.05914 44.0921 9.32578 43.8733 9.68131C43.6682 10.0232 43.4357 10.3992 43.1759 10.8094C42.9298 11.2196 42.6836 11.6367 42.4375 12.0606C42.1914 12.4708 41.9794 12.8332 41.8017 13.1477C41.5145 13.6673 41.2479 14.0775 41.0017 14.3784C40.7556 14.6792 40.5231 14.8296 40.3044 14.8296Z" fill="#1B426D"/>
<path d="M31.4709 14.8296C31.3615 14.8296 31.2247 14.7954 31.0606 14.727C30.9102 14.6724 30.7803 14.5835 30.6709 14.4604C30.5615 14.3373 30.5068 14.2006 30.5068 14.0502C30.5068 13.9271 30.5273 13.7904 30.5684 13.64C30.6231 13.4895 30.6846 13.3049 30.753 13.0862L32.7631 7.85581C32.8314 7.7054 32.8519 7.5755 32.8246 7.4661C32.7972 7.35671 32.7152 7.30201 32.5785 7.30201C32.3187 7.30201 32.0999 7.34987 31.9221 7.44559C31.758 7.52764 31.5939 7.63019 31.4298 7.75326C31.3615 7.80796 31.2794 7.82847 31.1837 7.81479C31.088 7.80112 31.0333 7.73959 31.0196 7.63019C31.0059 7.41141 31.1017 7.18578 31.3068 6.95332C31.5119 6.70719 31.7649 6.48841 32.0657 6.29697C32.3255 6.14655 32.6058 6.02349 32.9066 5.92777C33.2211 5.81837 33.5288 5.76368 33.8296 5.76368C34.2125 5.76368 34.4792 5.86623 34.6296 6.07135C34.78 6.27646 34.8347 6.54994 34.7937 6.89179C34.7663 7.23364 34.6638 7.63019 34.486 8.08144L33.645 10.0915C33.604 10.1872 33.6177 10.2488 33.6861 10.2761C33.7681 10.2898 33.8365 10.2488 33.8912 10.1531C34.3971 9.27792 34.8894 8.51217 35.368 7.85581C35.8602 7.18578 36.3457 6.66617 36.8243 6.29697C37.3029 5.91409 37.7609 5.72266 38.1985 5.72266C38.5951 5.72266 38.8959 5.84572 39.101 6.09186C39.3061 6.32432 39.4087 6.60464 39.4087 6.93281C39.4087 7.26099 39.3335 7.58233 39.1831 7.89684C39.0463 8.21134 38.8685 8.46431 38.6498 8.65575C38.4447 8.84719 38.2395 8.94291 38.0344 8.94291C37.8977 8.94291 37.7883 8.87454 37.7063 8.7378C37.6379 8.60105 37.5832 8.40278 37.5422 8.14297C37.5148 7.91051 37.467 7.71907 37.3986 7.56866C37.3302 7.40457 37.214 7.32253 37.0499 7.32253C36.8448 7.32253 36.6192 7.45927 36.373 7.73275C36.1406 7.99256 35.8602 8.37543 35.5321 8.88137C35.4227 9.05914 35.2586 9.32578 35.0398 9.68131C34.8347 10.0232 34.6022 10.3992 34.3424 10.8094C34.0963 11.2196 33.8502 11.6367 33.604 12.0606C33.3579 12.4708 33.1459 12.8332 32.9682 13.1477C32.681 13.6673 32.4144 14.0775 32.1682 14.3784C31.9221 14.6792 31.6896 14.8296 31.4709 14.8296Z" fill="#1B426D"/>
<path d="M24.1922 14.809C23.864 14.809 23.5564 14.6997 23.2692 14.4809C22.982 14.2621 22.7496 13.9749 22.5718 13.6194C22.4077 13.2639 22.3257 12.8878 22.3257 12.4913C22.3257 11.8486 22.4487 11.1581 22.6949 10.4197C22.9547 9.66758 23.3102 8.96337 23.7615 8.30701C24.2127 7.63698 24.7323 7.09002 25.3203 6.66612C25.922 6.24222 26.5647 6.03027 27.2484 6.03027C27.9321 6.03027 28.4585 6.26273 28.8277 6.72765C29.2106 7.19257 29.402 7.76688 29.402 8.45059C29.402 9.06592 29.279 9.74279 29.0328 10.4812C28.7867 11.2059 28.4312 11.8965 27.9662 12.5528C27.515 13.2092 26.968 13.7493 26.3254 14.1732C25.6963 14.5971 24.9853 14.809 24.1922 14.809ZM24.5204 14.1937C24.8486 14.1937 25.1767 14.0501 25.5049 13.763C25.8468 13.4758 26.1681 13.0998 26.4689 12.6349C26.7834 12.1699 27.0569 11.6572 27.2894 11.0965C27.5355 10.5359 27.727 9.97525 27.8637 9.41461C28.0141 8.85398 28.0893 8.3412 28.0893 7.87628C28.0893 7.52075 28.0278 7.22676 27.9047 6.9943C27.7953 6.76184 27.5629 6.64561 27.2073 6.64561C26.8928 6.64561 26.5647 6.77551 26.2228 7.03532C25.8946 7.29513 25.5733 7.64382 25.2588 8.08139C24.9579 8.51896 24.6845 9.01123 24.4383 9.55819C24.1922 10.0915 23.9939 10.6521 23.8435 11.2401C23.7068 11.8144 23.6384 12.3751 23.6384 12.922C23.6384 13.3733 23.7136 13.7014 23.864 13.9066C24.0281 14.098 24.2469 14.1937 24.5204 14.1937Z" fill="#1B426D"/>
<path d="M17.5251 14.8296C17.1969 14.8296 16.8687 14.727 16.5405 14.5219C16.226 14.3031 15.9594 14.016 15.7406 13.6604C15.5355 13.3049 15.4398 12.9015 15.4534 12.4503C15.4671 11.8896 15.556 11.3085 15.7201 10.7068C15.8842 10.1052 16.1166 9.51719 16.4175 8.94288C16.7183 8.36857 17.0875 7.85579 17.5251 7.40454C17.9626 6.93962 18.4617 6.57042 19.0224 6.29694C19.583 6.02346 20.1983 5.88672 20.8684 5.88672C21.2923 5.88672 21.6204 5.9756 21.8529 6.15336C22.099 6.31745 22.2221 6.51573 22.2221 6.74819C22.2221 6.98065 22.1469 7.21994 21.9965 7.46608C21.8461 7.69854 21.6888 7.81477 21.5247 7.81477C21.4153 7.81477 21.3196 7.76691 21.2376 7.67119C21.1692 7.57547 21.0872 7.43873 20.9914 7.26097C20.8957 7.0832 20.7727 6.92595 20.6222 6.78921C20.4855 6.63879 20.3146 6.56359 20.1095 6.56359C19.795 6.56359 19.4736 6.74135 19.1454 7.09688C18.8173 7.43873 18.5096 7.88314 18.2224 8.4301C17.949 8.97707 17.7233 9.56505 17.5456 10.1941C17.3815 10.8231 17.2926 11.4111 17.2789 11.958C17.2789 12.4229 17.3815 12.7648 17.5866 12.9836C17.7917 13.1887 18.072 13.2912 18.4275 13.2912C18.8378 13.2912 19.1865 13.2092 19.4736 13.0451C19.7608 12.8673 20.0274 12.6417 20.2735 12.3682C20.3556 12.2862 20.424 12.2247 20.4787 12.1836C20.5334 12.1426 20.5949 12.1221 20.6633 12.1221C20.7863 12.1221 20.8479 12.2042 20.8479 12.3682C20.8479 12.5597 20.7521 12.7921 20.5607 13.0656C20.3829 13.3391 20.13 13.6126 19.8018 13.8861C19.4873 14.1595 19.1318 14.3852 18.7352 14.5629C18.3523 14.7407 17.949 14.8296 17.5251 14.8296Z" fill="#1B426D"/>
<path d="M10.2191 14.8294C9.87729 14.8294 9.51492 14.72 9.13205 14.5012C8.76285 14.2687 8.44834 13.9747 8.18854 13.6192C7.9424 13.25 7.81934 12.8603 7.81934 12.4501C7.81934 11.657 7.96975 10.8639 8.27058 10.0708C8.57141 9.27767 8.98163 8.55978 9.50125 7.9171C10.0209 7.27442 10.6089 6.7548 11.2652 6.35825C11.9216 5.9617 12.5984 5.76343 13.2958 5.76343C13.9795 5.76343 14.4855 5.90017 14.8136 6.17365C15.1418 6.43346 15.3059 6.76164 15.3059 7.15818C15.3059 7.60943 15.1555 7.99914 14.8547 8.32732C14.5675 8.6555 14.1846 8.93582 13.706 9.16828C13.2411 9.40074 12.7215 9.59217 12.1472 9.74259C11.5866 9.893 11.0464 10.0229 10.5268 10.1323C10.4584 10.146 10.4037 10.1665 10.3627 10.1938C10.3354 10.2075 10.308 10.2485 10.2807 10.3169C10.226 10.4947 10.1781 10.6793 10.1371 10.8707C10.0961 11.0621 10.0687 11.2467 10.0551 11.4245C10.0414 11.9031 10.1508 12.3065 10.3832 12.6347C10.6294 12.9492 10.9849 13.1064 11.4498 13.1064C11.8737 13.1064 12.2497 13.0039 12.5779 12.7987C12.9061 12.58 13.2069 12.3202 13.4804 12.0193C13.6308 11.8689 13.7539 11.7937 13.8496 11.7937C13.9727 11.7937 14.0342 11.8621 14.0342 11.9988C14.0342 12.0398 14.0274 12.0877 14.0137 12.1424C14.0137 12.1834 14 12.2176 13.9727 12.2449C13.7129 12.7235 13.3984 13.1611 13.0292 13.5577C12.66 13.9542 12.2429 14.2687 11.778 14.5012C11.3131 14.72 10.7935 14.8294 10.2191 14.8294ZM10.6704 9.49646C10.9028 9.44176 11.1832 9.36655 11.5113 9.27083C11.8395 9.16144 12.154 9.01103 12.4549 8.81959C12.7694 8.62815 13.0292 8.39569 13.2343 8.12221C13.4394 7.83505 13.5488 7.4932 13.5625 7.09665C13.5761 6.93256 13.5351 6.78215 13.4394 6.64541C13.3437 6.50867 13.2001 6.4403 13.0087 6.4403C12.7488 6.4403 12.4822 6.53601 12.2087 6.72745C11.9352 6.91889 11.6754 7.16502 11.4293 7.46585C11.1968 7.75301 10.9986 8.06751 10.8345 8.40937C10.6704 8.75122 10.5678 9.07256 10.5268 9.37339C10.5131 9.46911 10.561 9.51013 10.6704 9.49646Z" fill="#1B426D"/>
<path d="M0.758913 14.8501C0.663194 14.8501 0.553801 14.8228 0.430734 14.7681C0.321341 14.7134 0.218786 14.6313 0.123067 14.5219C0.0410223 14.4262 0 14.3236 0 14.2143C0 14.0638 0.0341852 13.8929 0.102556 13.7015C0.170926 13.4964 0.259808 13.2434 0.369201 12.9426L2.31776 7.87631C2.38613 7.71222 2.40664 7.56864 2.37929 7.44558C2.36562 7.30883 2.29041 7.24046 2.15367 7.24046C1.93488 7.24046 1.73661 7.27465 1.55885 7.34302C1.38108 7.41139 1.22383 7.49344 1.08709 7.58915C1.00505 7.64385 0.923002 7.65752 0.840957 7.63018C0.758912 7.60283 0.71789 7.53446 0.71789 7.42506C0.704216 7.26098 0.772587 7.08321 0.923002 6.89178C1.08709 6.70034 1.2922 6.52941 1.53834 6.379C1.74345 6.22858 1.98274 6.11235 2.25623 6.03031C2.52971 5.93459 2.80319 5.88673 3.07667 5.88673C3.45955 5.88673 3.71252 5.98928 3.83558 6.1944C3.95865 6.38583 3.99284 6.65248 3.93814 6.99433C3.89712 7.32251 3.78772 7.69855 3.60996 8.12244L2.72798 10.2761C2.67329 10.3718 2.68696 10.4334 2.769 10.4607C2.86472 10.4881 2.93309 10.4607 2.97412 10.3787C3.49373 9.46251 4.01335 8.66941 4.53296 7.99938C5.06625 7.31567 5.56536 6.78238 6.03028 6.39951C6.50887 6.01663 6.9396 5.8252 7.32248 5.8252C7.70535 5.8252 7.97884 5.93459 8.14292 6.15337C8.32069 6.37216 8.40957 6.6388 8.40957 6.95331C8.40957 7.24046 8.34804 7.52762 8.22497 7.81478C8.11558 8.10193 7.96516 8.34123 7.77372 8.53267C7.59596 8.71043 7.41136 8.79931 7.21992 8.79931C7.08318 8.79931 6.98063 8.73094 6.91226 8.5942C6.85756 8.45746 6.81654 8.26602 6.78919 8.01989C6.77552 7.81478 6.73449 7.64385 6.66612 7.50711C6.61143 7.35669 6.50887 7.28149 6.35846 7.28149C6.18069 7.28149 5.97558 7.39772 5.74312 7.63018C5.51066 7.84896 5.23034 8.19765 4.90216 8.67624C4.76542 8.86768 4.58082 9.14116 4.34836 9.49669C4.1159 9.83854 3.86977 10.2214 3.60996 10.6453C3.35015 11.0692 3.09035 11.4931 2.83054 11.917C2.57073 12.3409 2.34511 12.7238 2.15367 13.0656C1.82549 13.6536 1.55885 14.098 1.35374 14.3989C1.14862 14.6997 0.95035 14.8501 0.758913 14.8501Z" fill="#1B426D"/>
</svg>
