<svg width="46" height="17" viewBox="0 0 46 17" fill="none" xmlns="http://www.w3.org/2000/svg">
<path d="M23.3937 0.124507C27.0287 -0.0676367 29.6003 0.169039 30.6974 0.399897C31.0396 0.471948 31.47 0.66856 31.9259 0.908686C32.4059 1.16147 32.9961 1.50647 33.6857 1.93115C34.7207 2.56863 36.003 3.40052 37.5128 4.3999L39.0978 5.45458L39.1271 5.47412L39.1554 5.49658C42.3883 8.09296 43.8653 9.36285 44.6788 10.1235C44.8008 10.1945 44.9209 10.2771 45.0245 10.3755C45.1163 10.4626 45.2137 10.5791 45.2911 10.7231C45.3477 10.7821 45.4013 10.8373 45.4513 10.8911L45.5734 11.0239L45.6085 11.062L45.6378 11.104C45.6673 11.146 45.7178 11.222 45.757 11.3188C45.7754 11.3645 45.9079 11.6784 45.7286 12.0229C45.5087 12.4456 45.0856 12.4662 44.9855 12.4653C44.8549 12.4642 44.75 12.4332 44.7091 12.4204C44.6957 12.4162 44.682 12.4098 44.6681 12.4048C43.8544 12.9164 42.3151 13.7439 40.7345 14.2349C39.1194 14.7365 35.9948 15.6072 30.9562 15.9175C28.6598 16.0588 25.9116 16.0979 23.0363 15.9907C22.4658 16 21.93 15.9854 21.4562 15.9321C21.3958 15.9253 21.3359 15.9141 21.2755 15.9058C21.0647 15.8935 20.8531 15.8835 20.6417 15.8696C16.9734 15.6282 13.1969 15.3342 10.5275 14.5923C4.2596 12.8502 1.52476 12.5473 0.774545 12.5181C0.330024 12.5008 -0.0161686 12.1257 0.00110777 11.6811C0.0113059 11.4221 0.144047 11.1988 0.339975 11.0591C0.343779 11.0506 0.347573 11.0421 0.351694 11.0337C0.476917 10.7792 0.763807 10.4059 1.31947 9.82373C1.89606 9.2197 2.81571 8.3364 4.2765 7.05322C7.36435 4.34081 10.0395 2.65289 11.8107 1.99755C14.6874 0.933217 18.3287 0.49873 22.0577 0.210444C22.4055 0.183562 22.7451 0.161555 23.0763 0.142085C23.1866 0.123422 23.2925 0.119176 23.3937 0.124507ZM25.2218 1.6704C25.7157 2.44935 26.02 3.18147 26.2814 3.84521C26.5506 4.5287 26.7642 5.10429 27.09 5.6704L27.1574 5.78369L27.1769 5.81591L27.1925 5.85009C27.6473 6.79279 28.1897 8.07264 28.3849 9.38427C28.5808 10.7006 28.4418 12.1739 27.3693 13.3364C27.155 13.5687 26.9591 13.8085 26.7111 14.0942C26.6125 14.2078 26.5068 14.3233 26.3976 14.4409C28 14.4389 29.5098 14.393 30.8566 14.3101C35.7383 14.0095 38.7339 13.1688 40.257 12.6958C41.4344 12.3301 42.605 11.7453 43.3771 11.3013C43.1419 11.1855 42.9849 10.9662 42.9406 10.7212C42.0723 9.95558 40.6531 8.76571 38.1759 6.77587C35.9762 5.30672 34.1866 4.1326 32.84 3.30322C32.1634 2.88655 31.6085 2.56283 31.1749 2.33447C30.7174 2.09352 30.4646 1.99695 30.3654 1.97607C29.6062 1.81636 27.8195 1.62586 25.2218 1.6704ZM20.9777 1.9165C17.7146 2.20427 14.7265 2.63614 12.3693 3.5083C10.8661 4.06449 8.36504 5.6069 5.33997 8.26415C3.8987 9.53019 3.01656 10.3787 2.48451 10.936C2.4393 10.9834 2.39754 11.0298 2.35755 11.0727C3.93913 11.3056 6.64745 11.8415 10.9581 13.0395C12.833 13.5606 15.3497 13.8525 18.0704 14.0698C17.9859 13.932 17.9153 13.779 17.8732 13.6069C17.6384 12.646 17.6876 10.9536 17.9357 9.27197C18.1865 7.57147 18.6673 5.69758 19.4074 4.37353C19.9581 3.3882 20.4923 2.56257 20.9777 1.9165Z" fill="#1B426D"/>
</svg>
