<svg width="92" height="92" viewBox="0 0 92 92" fill="none" xmlns="http://www.w3.org/2000/svg">
<path d="M46.0289 0.0888672C46.7385 0.256036 48.496 0.599979 49.525 0.881836C50.988 1.26577 52.99 1.86128 54.9899 2.63281C56.9425 3.38612 59.1063 4.38582 60.7487 5.63965C62.85 7.24383 69.1883 10.7049 75.7604 16.8643C78.9614 19.8643 81.6216 22.3619 83.5739 24.252C84.5491 25.1961 85.3695 26.0094 86.0016 26.6699C86.5749 27.269 87.1638 27.9156 87.5231 28.4678C88.6294 30.1681 90.0972 32.6172 91.1178 35.21C91.6172 36.4786 91.938 38.5667 91.9918 41.4131C92.0474 44.3528 91.8214 48.3508 91.0553 53.5898C90.1768 59.5978 88.7378 67.2522 87.2916 71.8848C85.3998 77.9448 83.2022 82.7996 79.1588 86.1953C75.8047 89.0121 71.9221 90.6604 64.4703 91.5957C61.7693 91.9347 54.9465 92.5713 43.649 90.958C37.9029 90.1374 31.7984 88.8631 27.2906 87.0928C20.347 84.3658 13.8431 81.3904 9.37561 75.9961C5.72573 71.5888 2.8629 67.6186 1.71155 64.1914C0.696543 61.1698 -0.118825 58.1613 0.0142796 52.1787C0.111229 47.8212 0.45231 40.5222 1.03283 35.7969C1.62053 31.0135 2.39853 28.715 3.21447 27.0771C3.57722 26.3492 4.22471 25.4083 4.97815 24.4033C5.77147 23.3452 6.80835 22.052 8.0592 20.5693C10.5631 17.6015 13.9755 13.8171 18.1266 9.54883C21.1908 6.39807 22.6137 5.15187 24.6432 4.18359C28.0704 2.54852 32.3498 1.54497 36.0895 0.932617C39.8672 0.314054 43.3322 0.0577919 45.2662 0.00976562L45.653 0L46.0289 0.0888672ZM45.0612 6.01953C43.3234 6.08242 40.3267 6.31848 37.0592 6.85352C33.5194 7.43314 29.8946 8.32608 27.2272 9.59863C26.2639 10.0582 25.4943 10.5799 22.4283 13.7324C18.3615 17.9141 15.0455 21.5933 12.6451 24.4385C11.4438 25.8624 10.4837 27.0629 9.77893 28.0029C9.03464 28.9957 8.68215 29.5571 8.58459 29.7529C8.17112 30.5829 7.52458 32.1603 6.98791 36.5283C6.44413 40.9545 6.10787 48.0182 6.01233 52.3125C5.89727 57.4851 6.56516 59.7978 7.39904 62.2803C8.15139 64.52 10.3044 67.7105 13.9967 72.1689C17.3789 76.2528 22.5218 78.7736 29.484 81.5078C33.3458 83.0244 38.9098 84.2207 44.4967 85.0186C55.1994 86.5469 61.4809 85.9239 63.7223 85.6426C70.466 84.7962 73.1171 83.4341 75.3004 81.6006C77.9656 79.3623 79.7458 75.9211 81.5641 70.0967C82.8643 65.9316 84.2495 58.6596 85.1178 52.7217C85.847 47.7351 86.041 44.072 85.9928 41.5264C85.9429 38.8878 85.6357 37.6647 85.5348 37.4082C84.732 35.3688 83.5176 33.3114 82.4948 31.7393C82.5148 31.77 82.4739 31.7073 82.3063 31.5137C82.154 31.3378 81.9435 31.1076 81.6666 30.8184C81.113 30.2398 80.3568 29.4878 79.401 28.5625C77.4911 26.7134 74.8698 24.2525 71.6578 21.2422C65.2179 15.2066 60.3785 12.9068 57.1071 10.4092C56.1466 9.67595 54.6155 8.91904 52.8307 8.23047C51.0933 7.56019 49.3146 7.02889 48.0026 6.68457L47.9821 6.67871L47.9615 6.67383C47.1084 6.43695 46.1668 6.26755 45.0612 6.01953Z" fill="#1B426D"/>
<path d="M38.3781 32.7545C40.9047 31.3799 45.2113 31.043 47.2321 31.0114C47.5997 31.1472 47.9566 31.2789 48.327 31.3754C48.6996 31.4726 49.0745 31.5323 49.4906 31.6243C51.1365 32.1334 52.6137 32.6183 53.9835 33.5003C55.5233 34.4918 57.7733 35.6856 58.5002 37.5893C58.8464 38.496 59.5511 42.1109 58.8073 47.1896C58.0351 52.4623 57.2986 56.2974 55.3231 57.6388C53.362 58.9704 49.8646 61.3304 44.9437 60.5419C42.1529 60.0947 37.9173 59.3795 33.4266 53.5185C32.2938 52.0399 31.6843 50.2905 32.1665 48.2783C33.2783 43.6385 35.8508 34.1294 38.3781 32.7545Z" fill="#1B426D"/>
</svg>
