<svg width="353" height="100" viewBox="0 0 353 100" fill="none" xmlns="http://www.w3.org/2000/svg">
<path d="M326.566 72.2001C324.166 72.2001 322.233 71.6334 320.766 70.5001C319.233 69.3668 318.466 67.9001 318.466 66.1001C318.466 64.4334 318.832 63.1001 319.566 62.1001C320.299 61.0334 321.199 60.5001 322.266 60.5001C322.733 60.5001 323.266 60.8001 323.866 61.4001C324.466 61.9334 325.166 62.5668 325.966 63.3001C326.832 64.1001 327.799 64.9334 328.866 65.8001C329.999 66.6668 331.232 67.1001 332.566 67.1001C333.899 67.1001 334.899 66.6668 335.566 65.8001C336.232 64.9334 336.599 63.9001 336.666 62.7001C336.733 61.5668 336.332 60.1668 335.466 58.5001C334.666 56.8334 333.766 55.2001 332.766 53.6001C331.633 51.9334 330.666 50.2334 329.866 48.5001C329.132 46.7001 328.766 45.0001 328.766 43.4001C328.766 41.6001 329.332 39.8001 330.466 38.0001C331.599 36.2001 333.033 34.5668 334.766 33.1001C336.566 31.5668 338.299 30.3668 339.966 29.5001C341.699 28.5668 343.133 28.1001 344.266 28.1001C345.666 28.1001 347.032 28.4334 348.366 29.1001C349.699 29.7668 350.799 30.5334 351.666 31.4001C352.532 32.2668 352.966 33.0334 352.966 33.7001C352.966 34.3001 352.666 35.0668 352.066 36.0001C351.466 36.8668 350.766 37.6334 349.966 38.3001C349.232 38.9668 348.532 39.3001 347.866 39.3001C347.266 39.3001 346.666 39.0334 346.066 38.5001C345.532 37.9668 345.032 37.4001 344.566 36.8001C344.032 36.0668 343.366 35.4334 342.566 34.9001C341.832 34.3668 340.999 34.1001 340.066 34.1001C339.066 34.1001 338.266 34.4668 337.666 35.2001C337.066 35.9334 336.766 36.8001 336.766 37.8001C336.766 38.3334 336.999 39.1001 337.466 40.1001C337.999 41.0334 338.599 42.0668 339.266 43.2001C339.999 44.2668 340.699 45.3001 341.366 46.3001C342.899 48.4334 344.033 50.4001 344.766 52.2001C345.566 54.0001 345.966 55.7001 345.966 57.3001C345.966 58.9001 345.399 60.5668 344.266 62.3001C343.133 64.0334 341.599 65.6668 339.666 67.2001C337.799 68.6668 335.732 69.8668 333.466 70.8001C331.199 71.7334 328.899 72.2001 326.566 72.2001Z" fill="#1B426D"/>
<path d="M272.527 72.2C271.66 72.2 270.76 71.9333 269.827 71.4C268.96 70.9333 268.227 70.3333 267.627 69.6C267.027 68.8667 266.727 68.1333 266.727 67.4C266.727 65.2 267.393 62.7667 268.727 60.1C270.06 57.4333 272.093 54.3667 274.827 50.9C277.627 47.3667 281.227 43.3333 285.627 38.8C288.76 35.6667 291.527 33.2 293.927 31.4C296.393 29.5333 298.227 28.6 299.427 28.6C300.96 28.6 302.593 29.3667 304.327 30.9C304.927 31.5667 305.227 31.9 305.227 31.9C305.227 31.9 305.26 31.9 305.327 31.9C305.46 31.9 305.56 31.8667 305.627 31.8C305.693 31.7333 305.793 31.5667 305.927 31.3C306.593 30.1 307.027 29.3333 307.227 29C307.427 28.6 307.527 28.3333 307.527 28.2C307.86 27.4 308.527 27 309.527 27C310.46 27 311.393 27.2 312.327 27.6C313.327 28 314.127 28.5 314.727 29.1C315.393 29.6333 315.727 30.1333 315.727 30.6C315.727 31 315.627 31.5 315.427 32.1L305.027 60.1C304.36 62.0333 304.727 63 306.127 63C307.06 63 308.327 62.4333 309.927 61.3C311.593 60.1 313.16 58.6667 314.627 57C314.827 56.8667 314.96 56.8 315.027 56.8C315.093 56.7333 315.16 56.7 315.227 56.7C315.56 56.7 315.827 56.8333 316.027 57.1C316.227 57.3 316.327 57.6333 316.327 58.1C316.327 58.9 315.727 60.0667 314.527 61.6C313.393 63.1333 311.993 64.6333 310.327 66.1C308.127 68.0333 305.927 69.5333 303.727 70.6C301.527 71.6667 299.627 72.2 298.027 72.2C297.16 72.2 296.26 71.9333 295.327 71.4C294.393 70.9333 293.627 70.3333 293.027 69.6C292.427 68.8 292.127 68.0333 292.127 67.3C292.127 66.7 292.327 65.9333 292.727 65C292.727 64.9333 292.827 64.6 293.027 64C293.293 63.3333 293.627 62.5333 294.027 61.6C294.427 60.6 294.86 59.6333 295.327 58.7C295.793 57.7 296.227 56.7667 296.627 55.9C296.827 55.4333 296.827 55.1 296.627 54.9C296.493 54.6333 296.293 54.6333 296.027 54.9C292.427 59.0333 289.193 62.3667 286.327 64.9C283.527 67.4333 281.027 69.3 278.827 70.5C276.627 71.6333 274.527 72.2 272.527 72.2ZM281.427 63C282.693 63 284.627 61.9 287.227 59.7C289.827 57.5 292.593 54.6333 295.527 51.1C297.793 48.3667 299.593 45.9 300.927 43.7C302.26 41.5 302.927 39.9 302.927 38.9C302.927 38.3667 302.327 37.6 301.127 36.6C300.593 36.1333 299.993 35.7667 299.327 35.5C298.727 35.2333 298.227 35.1 297.827 35.1C296.76 35.1 295.26 35.7 293.327 36.9C291.46 38.1 289.693 39.5 288.027 41.1C286.427 42.7 284.893 44.6333 283.427 46.9C281.96 49.1 280.76 51.3333 279.827 53.6C278.893 55.8667 278.427 57.8333 278.427 59.5C278.427 60.5667 278.693 61.4333 279.227 62.1C279.76 62.7 280.493 63 281.427 63Z" fill="#1B426D"/>
<path d="M197.12 72.4999C196.787 72.4999 196.487 72.3332 196.22 71.9999C195.954 71.6666 195.72 71.2666 195.52 70.7999C195.387 70.3332 195.32 69.8999 195.32 69.4999C195.32 69.1666 195.52 68.3666 195.92 67.0999C196.387 65.8332 196.954 64.2666 197.62 62.3999L206.82 38.2999C207.154 37.4332 207.154 36.6999 206.82 36.0999C206.487 35.4999 205.92 35.1999 205.12 35.1999C204.12 35.1999 203.054 35.4332 201.92 35.8999C200.854 36.3666 199.52 37.6666 197.92 39.7999C197.654 40.0666 197.354 40.1999 197.02 40.1999C196.754 40.1332 196.554 39.8666 196.42 39.3999C196.42 38.9999 196.487 38.4999 196.62 37.8999C196.754 37.2332 196.954 36.5666 197.22 35.8999C197.554 35.2332 197.854 34.7332 198.12 34.3999C199.254 32.9999 200.62 31.8332 202.22 30.8999C203.82 29.9666 205.754 29.4666 208.02 29.3999C208.954 29.3999 209.854 29.5666 210.72 29.8999C211.654 30.1666 212.32 30.6999 212.72 31.4999C213.187 32.2999 213.154 33.3999 212.62 34.7999L206.92 49.5999C206.72 50.0666 206.754 50.3332 207.02 50.3999C207.354 50.4666 207.62 50.3332 207.82 49.9999C210.687 45.5999 213.42 41.8666 216.02 38.7999C218.687 35.7332 221.22 33.3999 223.62 31.7999C226.087 30.1999 228.387 29.3999 230.52 29.3999C231.787 29.3999 232.92 29.7666 233.92 30.4999C234.987 31.2332 235.687 32.3332 236.02 33.7999C236.42 35.1999 236.254 36.9666 235.52 39.0999L231.92 49.5999C231.72 50.0666 231.754 50.3332 232.02 50.3999C232.354 50.4666 232.62 50.3332 232.82 49.9999C235.62 45.3999 238.354 41.5999 241.02 38.5999C243.754 35.5332 246.387 33.2332 248.92 31.6999C251.454 30.1666 253.787 29.3999 255.92 29.3999C257.187 29.3999 258.32 29.7999 259.32 30.5999C260.32 31.3999 260.954 32.5999 261.22 34.1999C261.554 35.7332 261.254 37.6666 260.32 39.9999L251.72 62.1999C250.72 64.5999 250.887 65.7999 252.22 65.7999C253.02 65.7999 253.987 65.4332 255.12 64.6999C256.254 63.9666 257.387 63.0999 258.52 62.0999C259.72 61.0999 260.754 60.1999 261.62 59.3999C262.487 58.5332 263.054 57.9666 263.32 57.6999C263.387 57.6332 263.42 57.5999 263.42 57.5999C263.487 57.5999 263.554 57.5999 263.62 57.5999C263.82 57.5999 263.987 57.6999 264.12 57.8999C264.32 58.0332 264.42 58.2332 264.42 58.4999C264.42 59.0332 264.287 59.5999 264.02 60.1999C263.82 60.7332 263.354 61.3666 262.62 62.0999C260.42 64.5666 257.954 66.8666 255.22 68.9999C252.487 71.1332 249.554 72.1999 246.42 72.1999C245.887 72.1999 245.32 71.9666 244.72 71.4999C244.187 71.0999 243.754 70.5332 243.42 69.7999C243.154 69.0666 243.154 68.3332 243.42 67.5999L255.02 37.6999C255.554 36.3666 255.52 35.3666 254.92 34.6999C254.387 34.0332 253.754 33.6666 253.02 33.5999C251.954 33.5332 250.52 34.0999 248.72 35.2999C246.92 36.4332 244.92 38.3666 242.72 41.0999C241.72 42.3666 240.32 44.2666 238.52 46.7999C236.787 49.3332 234.987 52.0666 233.12 54.9999C231.32 57.8666 229.754 60.5332 228.42 62.9999C227.287 65.1332 226.22 66.8999 225.22 68.2999C224.22 69.6999 223.32 70.7332 222.52 71.3999C221.72 72.1332 221.054 72.4999 220.52 72.4999C220.187 72.4999 219.887 72.3332 219.62 71.9999C219.354 71.7332 219.12 71.3999 218.92 70.9999C218.787 70.5999 218.72 70.1999 218.72 69.7999C218.72 69.4666 218.92 68.6332 219.32 67.2999C219.787 65.8999 220.354 64.2666 221.02 62.3999L230.32 37.3999C230.92 35.8666 230.854 34.8332 230.12 34.2999C229.387 33.6999 228.787 33.3666 228.32 33.2999C227.254 33.1666 225.82 33.7332 224.02 34.9999C222.22 36.1999 220.22 38.1666 218.02 40.8999C217.22 41.8332 216.22 43.1666 215.02 44.8999C213.82 46.6332 212.52 48.5666 211.12 50.6999C209.787 52.7666 208.454 54.8999 207.12 57.0999C205.854 59.2332 204.72 61.1999 203.72 62.9999C201.987 66.1999 200.654 68.5999 199.72 70.1999C198.787 71.7332 197.92 72.4999 197.12 72.4999Z" fill="#1B426D"/>
<path d="M165.587 72.1998C164.187 72.1998 162.954 71.6998 161.887 70.6998C160.82 69.6331 160.287 68.5665 160.287 67.4998C160.287 67.1665 160.287 66.8665 160.287 66.5998C160.354 66.2665 160.487 65.8998 160.687 65.4998C162.887 60.8331 164.854 56.2998 166.587 51.8998C168.32 47.4998 169.954 43.3998 171.487 39.5998C171.687 39.0665 171.554 38.7998 171.087 38.7998C170.62 38.7998 169.987 38.9665 169.187 39.2998C168.387 39.6331 167.554 40.0665 166.687 40.5998C165.82 41.0665 164.987 41.5665 164.187 42.0998C163.52 42.4998 162.987 42.5998 162.587 42.3998C162.254 42.1331 162.087 41.7665 162.087 41.2998C162.087 40.8998 162.454 40.2665 163.187 39.3998C163.987 38.5331 164.987 37.5998 166.187 36.5998C167.454 35.5331 168.854 34.4665 170.387 33.3998C171.92 32.3331 173.454 31.3665 174.987 30.4998C176.52 29.5665 177.92 28.8331 179.187 28.2998C180.054 27.9665 180.92 28.0331 181.787 28.4998C182.654 28.9665 183.354 29.5998 183.887 30.3998C184.42 31.1331 184.554 31.7998 184.287 32.3998L172.787 60.4998C172.587 60.8331 172.454 61.1998 172.387 61.5998C172.32 61.9331 172.287 62.2331 172.287 62.4998C172.287 62.8331 172.387 63.0665 172.587 63.1998C172.854 63.3331 173.087 63.3998 173.287 63.3998C174.02 63.3998 174.987 62.9998 176.187 62.1998C177.454 61.3331 178.754 60.3331 180.087 59.1998C181.487 58.0665 182.72 56.9665 183.787 55.8998C183.92 55.6998 184.054 55.5998 184.187 55.5998C184.454 55.5998 184.687 55.7331 184.887 55.9998C185.087 56.1998 185.187 56.4331 185.187 56.6998C185.187 57.8998 184.487 59.3665 183.087 61.0998C181.754 62.7665 180.054 64.4665 177.987 66.1998C175.92 67.8665 173.754 69.2998 171.487 70.4998C169.287 71.6331 167.32 72.1998 165.587 72.1998ZM184.587 20.0998C183.254 20.0998 182.154 19.5998 181.287 18.5998C180.42 17.5331 179.987 16.3665 179.987 15.0998C179.987 13.0331 180.687 11.2331 182.087 9.69981C183.554 8.09981 185.354 7.2998 187.487 7.2998C188.887 7.2998 189.987 7.8998 190.787 9.0998C191.587 10.2331 191.987 11.4665 191.987 12.7998C191.987 14.6665 191.254 16.3665 189.787 17.8998C188.387 19.3665 186.654 20.0998 184.587 20.0998Z" fill="#1B426D"/>
<path d="M129.188 71.0998C128.522 71.0998 128.022 70.9998 127.688 70.7998C127.355 70.6665 127.188 70.3998 127.188 69.9998C127.188 69.4665 127.388 69.1331 127.788 68.9998C128.188 68.7998 128.755 68.5998 129.488 68.3998C130.755 68.0665 131.688 67.5998 132.288 66.9998C132.955 66.3331 133.288 65.5331 133.288 64.5998V43.0998C133.288 41.2998 133.022 39.7331 132.488 38.3998C131.955 37.0665 130.855 36.2331 129.188 35.8998C128.922 35.8331 128.688 35.6665 128.488 35.3998C128.288 35.1331 128.188 34.8665 128.188 34.5998C128.188 33.9331 128.488 33.5331 129.088 33.3998C130.822 32.8665 132.622 32.0998 134.488 31.0998C136.422 30.0331 137.922 29.1665 138.988 28.4998C139.388 28.2331 139.688 28.0665 139.888 27.9998C140.155 27.8665 140.355 27.7998 140.488 27.7998C140.822 27.7998 140.988 28.0331 140.988 28.4998C140.988 28.6998 140.955 29.1998 140.888 29.9998C140.888 30.7998 140.855 31.7331 140.788 32.7998C140.788 33.8665 140.755 34.9331 140.688 35.9998C140.688 36.1331 140.755 36.1998 140.888 36.1998C141.955 34.8665 143.122 33.6998 144.388 32.6998C145.722 31.6998 147.055 30.8998 148.388 30.2998C149.788 29.6998 151.122 29.3998 152.388 29.3998C153.788 29.3998 154.922 29.6998 155.788 30.2998C156.722 30.8998 157.188 31.6665 157.188 32.5998C157.188 33.2665 156.988 33.9998 156.588 34.7998C156.255 35.5998 155.788 36.2998 155.188 36.8998C154.588 37.4998 153.955 37.7998 153.288 37.7998C152.888 37.7998 152.455 37.7331 151.988 37.5998C151.522 37.3998 151.022 37.1665 150.488 36.8998C149.955 36.6998 149.422 36.4998 148.888 36.2998C148.355 36.0998 147.822 35.9998 147.288 35.9998C145.688 35.9998 144.122 36.5665 142.588 37.6998C141.122 38.8331 140.388 41.0665 140.388 44.3998V64.5998C140.388 65.4665 140.855 66.1998 141.788 66.7998C142.722 67.3331 144.022 67.8665 145.688 68.3998C146.422 68.5998 146.988 68.7998 147.388 68.9998C147.788 69.1998 147.988 69.5331 147.988 69.9998C147.988 70.7331 147.322 71.0998 145.988 71.0998C143.988 71.0998 142.455 70.9998 141.388 70.7998C140.388 70.6665 139.022 70.5998 137.288 70.5998C136.155 70.5998 135.222 70.6331 134.488 70.6998C133.822 70.7665 133.088 70.8331 132.288 70.8998C131.555 71.0331 130.522 71.0998 129.188 71.0998Z" fill="#1B426D"/>
<path d="M92.5289 99.8002C88.5289 99.8002 84.8956 99.3335 81.6289 98.4002C78.4289 97.5335 75.8956 96.3002 74.0289 94.7002C72.0956 93.1002 71.1289 91.2002 71.1289 89.0002C71.1289 87.3335 72.0956 85.8002 74.0289 84.4002C75.9622 83.0002 78.4289 81.7002 81.4289 80.5002C84.4289 79.3002 87.5289 78.2002 90.7289 77.2002C91.3956 77.0002 91.4622 76.7002 90.9289 76.3002C89.5289 75.2335 88.3289 74.1669 87.3289 73.1002C86.3956 72.1002 85.9289 71.0335 85.9289 69.9002C85.9289 68.7669 86.4956 67.6669 87.6289 66.6002C88.8289 65.5335 90.2956 64.4335 92.0289 63.3002C92.3622 62.9669 92.5956 62.7002 92.7289 62.5002C92.9289 62.3002 93.0289 62.1669 93.0289 62.1002C93.0289 61.8335 92.7289 61.6002 92.1289 61.4002C90.8622 60.7335 89.7622 59.9669 88.8289 59.1002C87.8956 58.1669 87.1956 57.0669 86.7289 55.8002C86.2622 54.5335 86.0289 53.1335 86.0289 51.6002C86.0289 49.3335 86.5289 46.9002 87.5289 44.3002C88.5289 41.7002 89.8956 39.2335 91.6289 36.9002C93.4289 34.5002 95.5956 32.5335 98.1289 31.0002C100.662 29.4669 103.429 28.7002 106.429 28.7002C107.762 28.7002 108.829 28.8669 109.629 29.2002C110.429 29.5335 111.129 29.8335 111.729 30.1002C112.396 30.4335 113.029 30.7335 113.629 31.0002C114.296 31.2669 114.862 31.4002 115.329 31.4002C116.196 31.4002 117.196 31.3002 118.329 31.1002C119.529 30.8335 120.696 30.6002 121.829 30.4002C123.029 30.2002 124.062 30.1002 124.929 30.1002C125.396 30.1002 125.896 30.3002 126.429 30.7002C127.029 31.0335 127.329 31.6335 127.329 32.5002C127.329 33.7002 127.096 34.6335 126.629 35.3002C126.229 35.9002 125.762 36.2002 125.229 36.2002C124.629 36.2002 123.829 36.1335 122.829 36.0002C121.896 35.8002 120.962 35.6335 120.029 35.5002C119.096 35.3002 118.329 35.2002 117.729 35.2002C117.396 35.2002 117.096 35.3002 116.829 35.5002C116.562 35.6335 116.496 35.9669 116.629 36.5002C116.762 37.0335 116.829 37.5669 116.829 38.1002C116.896 38.6335 116.929 39.2002 116.929 39.8002C116.929 42.4002 116.396 45.0335 115.329 47.7002C114.329 50.3669 112.929 52.8335 111.129 55.1002C109.329 57.3002 107.262 59.1002 104.929 60.5002C102.662 61.8335 100.262 62.5002 97.7289 62.5002C97.2622 62.5002 96.7956 62.5669 96.3289 62.7002C95.8622 62.8335 95.4622 63.0335 95.1289 63.3002C94.4622 64.1002 94.1289 64.9335 94.1289 65.8002C94.1289 66.8002 94.4622 67.7002 95.1289 68.5002C95.7956 69.3002 96.8622 70.2002 98.3289 71.2002C99.5289 72.0002 100.929 72.9002 102.529 73.9002C104.129 74.9669 105.729 76.0002 107.329 77.0002C108.929 78.0002 110.296 78.9002 111.429 79.7002C112.896 80.7669 113.962 81.8002 114.629 82.8002C115.362 83.8669 115.729 84.9669 115.729 86.1002C115.729 87.9002 114.996 89.6002 113.529 91.2002C112.129 92.8669 110.262 94.3335 107.929 95.6002C105.662 96.9335 103.162 97.9669 100.429 98.7002C97.7622 99.4335 95.1289 99.8002 92.5289 99.8002ZM95.9289 96.6002C98.3289 96.6002 100.329 96.2669 101.929 95.6002C103.596 95.0002 104.862 94.1669 105.729 93.1002C106.596 92.1002 107.029 91.0002 107.029 89.8002C107.029 88.9335 106.729 87.9669 106.129 86.9002C105.596 85.9002 104.662 85.0335 103.329 84.3002C102.529 83.7002 101.362 82.9002 99.8289 81.9002C98.2956 80.9669 97.0956 80.3002 96.2289 79.9002C95.2289 79.3669 94.4289 79.1002 93.8289 79.1002C93.4289 79.1002 93.0289 79.1335 92.6289 79.2002C92.2956 79.2669 91.9289 79.3669 91.5289 79.5002C87.7956 80.6335 84.8622 81.9002 82.7289 83.3002C80.5956 84.7669 79.5289 86.5669 79.5289 88.7002C79.5289 90.1669 80.2622 91.4669 81.7289 92.6002C83.2622 93.8002 85.2622 94.7669 87.7289 95.5002C90.1956 96.2335 92.9289 96.6002 95.9289 96.6002ZM96.9289 59.5002C98.1289 59.5669 99.3289 59.0335 100.529 57.9002C101.796 56.7002 102.996 55.1669 104.129 53.3002C105.329 51.4335 106.362 49.4335 107.229 47.3002C108.162 45.1669 108.896 43.1002 109.429 41.1002C109.962 39.1002 110.229 37.4669 110.229 36.2002C110.229 35.0669 109.929 34.0335 109.329 33.1002C108.729 32.1669 107.962 31.7002 107.029 31.7002C105.829 31.7002 104.596 32.2335 103.329 33.3002C102.129 34.3669 100.929 35.8002 99.7289 37.6002C98.5956 39.3335 97.5622 41.2335 96.6289 43.3002C95.6956 45.3669 94.9289 47.4335 94.3289 49.5002C93.7956 51.5002 93.5289 53.3002 93.5289 54.9002C93.5289 56.2335 93.8622 57.3335 94.5289 58.2002C95.2622 59.0669 96.0622 59.5002 96.9289 59.5002Z" fill="#1B426D"/>
<path d="M32.3898 72.1998C31.5232 72.1998 30.6232 71.9331 29.6898 71.3998C28.8232 70.9331 28.0898 70.3331 27.4898 69.5998C26.8898 68.8665 26.5898 68.1331 26.5898 67.3998C26.5898 65.1998 27.2565 62.7665 28.5898 60.0998C29.9232 57.4331 31.9565 54.3665 34.6898 50.8998C37.4898 47.3665 41.0898 43.3331 45.4898 38.7998C48.6232 35.6665 51.3898 33.1998 53.7898 31.3998C56.2565 29.5331 58.0898 28.5998 59.2898 28.5998C60.8232 28.5998 62.4565 29.3665 64.1898 30.8998C64.7898 31.5665 65.0898 31.8998 65.0898 31.8998C65.0898 31.8998 65.1232 31.8998 65.1898 31.8998C65.3232 31.8998 65.4232 31.8665 65.4898 31.7998C65.5565 31.7331 65.6565 31.5665 65.7898 31.2998C66.4565 30.0998 66.8898 29.3331 67.0898 28.9998C67.2898 28.5998 67.3898 28.3331 67.3898 28.1998C67.7232 27.3998 68.3898 26.9998 69.3898 26.9998C70.3232 26.9998 71.2565 27.1998 72.1898 27.5998C73.1898 27.9998 73.9898 28.4998 74.5898 29.0998C75.2565 29.6331 75.5898 30.1331 75.5898 30.5998C75.5898 30.9998 75.4898 31.4998 75.2898 32.0998L64.8898 60.0998C64.2232 62.0331 64.5898 62.9998 65.9898 62.9998C66.9232 62.9998 68.1898 62.4331 69.7898 61.2998C71.4565 60.0998 73.0232 58.6665 74.4898 56.9998C74.6898 56.8665 74.8232 56.7998 74.8898 56.7998C74.9565 56.7331 75.0232 56.6998 75.0898 56.6998C75.4232 56.6998 75.6898 56.8331 75.8898 57.0998C76.0898 57.2998 76.1898 57.6331 76.1898 58.0998C76.1898 58.8998 75.5898 60.0665 74.3898 61.5998C73.2565 63.1331 71.8565 64.6331 70.1898 66.0998C67.9898 68.0331 65.7898 69.5331 63.5898 70.5998C61.3898 71.6665 59.4898 72.1998 57.8898 72.1998C57.0232 72.1998 56.1232 71.9331 55.1898 71.3998C54.2565 70.9331 53.4898 70.3331 52.8898 69.5998C52.2898 68.7998 51.9898 68.0331 51.9898 67.2998C51.9898 66.6998 52.1898 65.9331 52.5898 64.9998C52.5898 64.9331 52.6898 64.5998 52.8898 63.9998C53.1565 63.3331 53.4898 62.5331 53.8898 61.5998C54.2898 60.5998 54.7232 59.6331 55.1898 58.6998C55.6565 57.6998 56.0898 56.7665 56.4898 55.8998C56.6898 55.4331 56.6898 55.0998 56.4898 54.8998C56.3565 54.6331 56.1565 54.6331 55.8898 54.8998C52.2898 59.0331 49.0565 62.3665 46.1898 64.8998C43.3898 67.4331 40.8898 69.2998 38.6898 70.4998C36.4898 71.6331 34.3898 72.1998 32.3898 72.1998ZM41.2898 62.9998C42.5565 62.9998 44.4898 61.8998 47.0898 59.6998C49.6898 57.4998 52.4565 54.6331 55.3898 51.0998C57.6565 48.3665 59.4565 45.8998 60.7898 43.6998C62.1232 41.4998 62.7898 39.8998 62.7898 38.8998C62.7898 38.3665 62.1898 37.5998 60.9898 36.5998C60.4565 36.1331 59.8565 35.7665 59.1898 35.4998C58.5898 35.2331 58.0898 35.0998 57.6898 35.0998C56.6232 35.0998 55.1232 35.6998 53.1898 36.8998C51.3232 38.0998 49.5565 39.4998 47.8898 41.0998C46.2898 42.6998 44.7565 44.6331 43.2898 46.8998C41.8232 49.0998 40.6232 51.3331 39.6898 53.5998C38.7565 55.8665 38.2898 57.8331 38.2898 59.4998C38.2898 60.5665 38.5565 61.4331 39.0898 62.0998C39.6232 62.6998 40.3565 62.9998 41.2898 62.9998ZM61.6898 23.5998C60.9565 23.5998 60.5565 23.2998 60.4898 22.6998C60.4232 22.0998 60.5565 21.4998 60.8898 20.8998L68.2898 5.49981C68.7565 4.43314 69.2565 3.63314 69.7898 3.09981C70.3232 2.56647 70.8899 2.2998 71.4898 2.2998C72.0898 2.2998 72.7898 2.56647 73.5898 3.09981C74.4565 3.56648 75.1898 4.16648 75.7898 4.89981C76.3898 5.56647 76.6898 6.19981 76.6898 6.79981C76.6898 7.26648 76.5232 7.79981 76.1898 8.39981C75.8565 8.99981 75.3565 9.66648 74.6898 10.3998L64.3898 21.9998C64.0565 22.4665 63.6232 22.8665 63.0898 23.1998C62.6232 23.4665 62.1565 23.5998 61.6898 23.5998Z" fill="#1B426D"/>
<path d="M4.9 72.2C3.76667 72.2 2.66667 71.7 1.6 70.7C0.533333 69.6333 0 68.5333 0 67.4C0 66.9333 0.0999999 66.4333 0.3 65.9L18.5 13.2C19.0333 11.8 19.3 10.6667 19.3 9.8C19.3 8.86667 19.1 8.06667 18.7 7.4C18.4333 6.93333 18.0333 6.46667 17.5 6C17.0333 5.53333 16.4667 5.16666 15.8 4.9C15.3333 4.69999 15 4.46666 14.8 4.2C14.6 3.93333 14.6 3.7 14.8 3.5C15.3333 3.23333 15.9333 3 16.6 2.8C17.2667 2.53333 17.9 2.3 18.5 2.1C19.1667 1.9 19.7 1.76666 20.1 1.7C21.0333 1.43333 22.2 1.16666 23.6 0.899996C25 0.633333 26.3 0.433333 27.5 0.299997C28.7 0.0999999 29.5 0 29.9 0C30.2333 0 30.5 0.166667 30.7 0.5C30.9667 0.766663 31.1 1.16666 31.1 1.7C31.0333 2.1 30.9 2.59999 30.7 3.2C30.5667 3.8 30.4 4.39999 30.2 4.99999L10.7 60.7C10.5667 61.1667 10.4667 61.6 10.4 62C10.3333 62.4 10.3 62.7667 10.3 63.1C10.3 64.1 10.6667 64.6 11.4 64.6C12.2 64.6 13.2 64.1667 14.4 63.3C15.6667 62.3667 16.9 61.2667 18.1 60C19.3667 58.6667 20.4 57.4667 21.2 56.4C21.5333 56 21.9 55.6333 22.3 55.3C22.7 54.9 23 54.7 23.2 54.7C23.5333 54.7 23.7333 54.8667 23.8 55.2C23.8667 55.4667 23.9 55.7667 23.9 56.1C23.9 57.3667 23.4333 58.7333 22.5 60.2C21.6333 61.6 20.4333 63.0333 18.9 64.5C17.3667 65.9 15.7333 67.2 14 68.4C12.3333 69.5333 10.6667 70.4333 9 71.1C7.4 71.8333 6.03333 72.2 4.9 72.2Z" fill="#1B426D"/>
</svg>
