<svg width="32" height="32" viewBox="0 0 32 32" fill="none" xmlns="http://www.w3.org/2000/svg">
<path d="M8.53422 1.44464C10.8021 0.362701 14.4163 0.0332367 15.7549 0C16.1276 0.0878215 16.6605 0.185781 17.0286 0.288002C18.0612 0.558988 19.842 1.12684 20.8105 1.86621C21.81 2.62933 23.8897 3.70115 26.3106 5.97005C28.6968 8.20644 30.2406 9.65992 30.5151 10.0817C30.9112 10.6906 31.4102 11.5291 31.7495 12.3909C31.9728 12.9583 32.2166 14.8542 31.6602 18.6592C31.3352 20.8817 30.81 23.6588 30.299 25.2956C29.6087 27.5067 28.8686 29.05 27.6204 30.0982C26.5902 30.9634 25.3747 31.5234 22.7336 31.8549C21.8142 31.9703 19.3762 32.2047 15.283 31.6202C13.1745 31.3191 11.0038 30.8594 9.44666 30.2479C6.85946 29.2318 4.69258 28.2093 3.23217 26.4459C1.86616 24.7964 0.933012 23.4643 0.578851 22.41C0.234863 21.386 -0.0411141 20.3961 0.00506173 18.3206C0.0408749 16.7109 0.167007 14.0388 0.376191 12.3362C0.585375 10.6336 0.850339 9.91273 1.07907 9.45361C1.42157 8.76612 3.37107 6.35602 6.42898 3.21179C7.56951 2.03906 7.9774 1.71029 8.53422 1.44464Z" fill="url(#paint0_radial_895_4001)"/>
<defs>
<radialGradient id="paint0_radial_895_4001" cx="0" cy="0" r="1" gradientUnits="userSpaceOnUse" gradientTransform="translate(16 16) rotate(89.7892) scale(16.0001)">
<stop offset="0.230769" stop-color="#FFF6ED"/>
<stop offset="1" stop-color="#91B1D9"/>
</radialGradient>
</defs>
</svg>
