<svg class="phase-illustration phase-illustration--desbordar reveal-item" width="250" height="250" viewBox="0 0 250 250" fill="none" xmlns="http://www.w3.org/2000/svg">
    <g class="phase2-drops">
        <circle class="phase2-drop phase2-drop--1" data-phase2-drop="1" cx="124.999" cy="28.4296" r="28.4296" fill="url(#paint0_radial_776_299)"/>
        <circle class="phase2-drop phase2-drop--2" data-phase2-drop="2" cx="124.999" cy="221.57" r="28.4296" fill="url(#paint1_radial_776_299)"/>
        <circle class="phase2-drop phase2-drop--3" data-phase2-drop="3" cx="193.285" cy="56.7143" r="28.4296" fill="url(#paint2_radial_776_299)"/>
        <circle class="phase2-drop phase2-drop--4" data-phase2-drop="4" cx="56.7139" cy="193.286" r="28.4296" fill="url(#paint3_radial_776_299)"/>
        <circle class="phase2-drop phase2-drop--5" data-phase2-drop="5" cx="221.57" cy="125" r="28.4296" fill="url(#paint4_radial_776_299)"/>
        <circle class="phase2-drop phase2-drop--6" data-phase2-drop="6" cx="28.4298" cy="125" r="28.4296" fill="url(#paint5_radial_776_299)"/>
        <circle class="phase2-drop phase2-drop--7" data-phase2-drop="7" cx="193.286" cy="193.286" r="28.4296" fill="url(#paint6_radial_776_299)"/>
        <circle class="phase2-drop phase2-drop--8" data-phase2-drop="8" cx="56.7144" cy="56.7144" r="28.4296" fill="url(#paint7_radial_776_299)"/>
    </g>

    <g class="phase2-arrows">
        <path class="phase2-arrow phase2-arrow--1" data-phase2-arrow="1" d="M125.627 67.5127C125.53 67.415 125.372 67.415 125.274 67.5127L123.683 69.1037C123.585 69.2013 123.585 69.3596 123.683 69.4572C123.781 69.5549 123.939 69.5549 124.036 69.4572L125.451 68.043L126.865 69.4572C126.963 69.5549 127.121 69.5549 127.218 69.4572C127.316 69.3596 127.316 69.2013 127.218 69.1037L125.627 67.5127ZM125.451 67.6895L125.201 67.6895L125.201 85.74L125.451 85.74L125.701 85.74L125.701 67.6895L125.451 67.6895Z" fill="#6594CD"/>
        <path class="phase2-arrow phase2-arrow--2" data-phase2-arrow="2" d="M125.274 182.487C125.372 182.585 125.53 182.585 125.627 182.487L127.218 180.896C127.316 180.798 127.316 180.64 127.218 180.543C127.121 180.445 126.963 180.445 126.865 180.543L125.451 181.957L124.036 180.543C123.939 180.445 123.781 180.445 123.683 180.543C123.585 180.64 123.585 180.798 123.683 180.896L125.274 182.487ZM125.451 164.26L125.201 164.26L125.201 182.31L125.451 182.31L125.701 182.31L125.701 164.26L125.451 164.26Z" fill="#6594CD"/>
        <path class="phase2-arrow phase2-arrow--3" data-phase2-arrow="3" d="M166.093 84.7944C166.093 84.6564 165.981 84.5444 165.843 84.5444L163.593 84.5444C163.455 84.5444 163.343 84.6564 163.343 84.7944C163.343 84.9325 163.455 85.0444 163.593 85.0444L165.593 85.0444L165.593 87.0444C165.593 87.1825 165.705 87.2944 165.843 87.2944C165.981 87.2944 166.093 87.1825 166.093 87.0444L166.093 84.7944ZM165.843 84.7944L165.666 84.6177L152.903 97.3813L153.08 97.5581L153.256 97.7349L166.02 84.9712L165.843 84.7944Z" fill="#6594CD"/>
        <path class="phase2-arrow phase2-arrow--4" data-phase2-arrow="4" d="M84.544 165.844C84.544 165.982 84.6559 166.094 84.794 166.094L87.044 166.094C87.182 166.094 87.294 165.982 87.294 165.844C87.294 165.706 87.182 165.594 87.044 165.594L85.044 165.594L85.044 163.594C85.044 163.456 84.932 163.344 84.794 163.344C84.6559 163.344 84.544 163.456 84.544 163.594L84.544 165.844ZM97.5576 153.08L97.3808 152.903L84.6172 165.667L84.794 165.844L84.9707 166.021L97.7344 153.257L97.5576 153.08Z" fill="#6594CD"/>
        <path class="phase2-arrow phase2-arrow--5" data-phase2-arrow="5" d="M182.487 125.628C182.585 125.53 182.585 125.372 182.487 125.274L180.896 123.683C180.799 123.586 180.64 123.586 180.543 123.683C180.445 123.781 180.445 123.939 180.543 124.037L181.957 125.451L180.543 126.865C180.445 126.963 180.445 127.121 180.543 127.219C180.64 127.317 180.799 127.317 180.896 127.219L182.487 125.628ZM182.311 125.451L182.311 125.201L164.26 125.201L164.26 125.451L164.26 125.701L182.311 125.701L182.311 125.451Z" fill="#6594CD"/>
        <path class="phase2-arrow phase2-arrow--6" data-phase2-arrow="6" d="M67.5129 125.274C67.4153 125.372 67.4153 125.53 67.5129 125.628L69.1039 127.219C69.2015 127.317 69.3598 127.317 69.4575 127.219C69.5551 127.121 69.5551 126.963 69.4575 126.865L68.0432 125.451L69.4575 124.037C69.5551 123.939 69.5551 123.781 69.4575 123.683C69.3598 123.586 69.2015 123.586 69.1039 123.683L67.5129 125.274ZM85.7402 125.451L85.7402 125.201L67.6897 125.201L67.6897 125.451L67.6897 125.701L85.7402 125.701L85.7402 125.451Z" fill="#6594CD"/>
        <path class="phase2-arrow phase2-arrow--7" data-phase2-arrow="7" d="M165.206 166.094C165.344 166.094 165.456 165.982 165.456 165.844L165.456 163.594C165.456 163.456 165.344 163.344 165.206 163.344C165.067 163.344 164.956 163.456 164.956 163.594L164.956 165.594L162.956 165.594C162.817 165.594 162.706 165.706 162.706 165.844C162.706 165.982 162.817 166.094 162.956 166.094L165.206 166.094ZM165.206 165.844L165.382 165.667L152.619 152.903L152.442 153.08L152.265 153.257L165.029 166.021L165.206 165.844Z" fill="#6594CD"/>
        <path class="phase2-arrow phase2-arrow--8" data-phase2-arrow="8" d="M84.1563 84.5444C84.0182 84.5444 83.9063 84.6564 83.9063 84.7944L83.9063 87.0444C83.9063 87.1825 84.0182 87.2944 84.1563 87.2944C84.2943 87.2944 84.4063 87.1825 84.4063 87.0444L84.4063 85.0444L86.4063 85.0444C86.5443 85.0444 86.6563 84.9325 86.6563 84.7944C86.6563 84.6564 86.5443 84.5444 86.4063 84.5444L84.1563 84.5444ZM96.9199 97.5581L97.0967 97.3813L84.333 84.6177L84.1563 84.7944L83.9795 84.9712L96.7431 97.7349L96.9199 97.5581Z" fill="#6594CD"/>
    </g>

    <circle class="phase2-core" cx="124.294" cy="125" r="28.4296" fill="url(#paint8_radial_776_299)"/>

    <defs>
<radialGradient id="paint0_radial_776_299" cx="0" cy="0" r="1" gradientUnits="userSpaceOnUse" gradientTransform="translate(124.999 28.4296) rotate(90) scale(46.0043)">
<stop stop-color="#FFF6ED" stop-opacity="0"/>
<stop offset="1" stop-color="#B2C9E6"/>
</radialGradient>
<radialGradient id="paint1_radial_776_299" cx="0" cy="0" r="1" gradientUnits="userSpaceOnUse" gradientTransform="translate(124.999 221.57) rotate(90) scale(46.0043)">
<stop stop-color="#FFF6ED" stop-opacity="0"/>
<stop offset="1" stop-color="#B2C9E6"/>
</radialGradient>
<radialGradient id="paint2_radial_776_299" cx="0" cy="0" r="1" gradientUnits="userSpaceOnUse" gradientTransform="translate(193.285 56.7143) rotate(90) scale(46.0043)">
<stop stop-color="#FFF6ED" stop-opacity="0"/>
<stop offset="1" stop-color="#B2C9E6"/>
</radialGradient>
<radialGradient id="paint3_radial_776_299" cx="0" cy="0" r="1" gradientUnits="userSpaceOnUse" gradientTransform="translate(56.7139 193.286) rotate(90) scale(46.0043)">
<stop stop-color="#FFF6ED" stop-opacity="0"/>
<stop offset="1" stop-color="#B2C9E6"/>
</radialGradient>
<radialGradient id="paint4_radial_776_299" cx="0" cy="0" r="1" gradientUnits="userSpaceOnUse" gradientTransform="translate(221.57 125) rotate(90) scale(46.0043)">
<stop stop-color="#FFF6ED" stop-opacity="0"/>
<stop offset="1" stop-color="#B2C9E6"/>
</radialGradient>
<radialGradient id="paint5_radial_776_299" cx="0" cy="0" r="1" gradientUnits="userSpaceOnUse" gradientTransform="translate(28.4298 125) rotate(90) scale(46.0043)">
<stop stop-color="#FFF6ED" stop-opacity="0"/>
<stop offset="1" stop-color="#B2C9E6"/>
</radialGradient>
<radialGradient id="paint6_radial_776_299" cx="0" cy="0" r="1" gradientUnits="userSpaceOnUse" gradientTransform="translate(193.286 193.286) rotate(90) scale(46.0043)">
<stop stop-color="#FFF6ED" stop-opacity="0"/>
<stop offset="1" stop-color="#B2C9E6"/>
</radialGradient>
<radialGradient id="paint7_radial_776_299" cx="0" cy="0" r="1" gradientUnits="userSpaceOnUse" gradientTransform="translate(56.7144 56.7144) rotate(90) scale(46.0043)">
<stop stop-color="#FFF6ED" stop-opacity="0"/>
<stop offset="1" stop-color="#B2C9E6"/>
</radialGradient>
<radialGradient id="paint8_radial_776_299" cx="0" cy="0" r="1" gradientUnits="userSpaceOnUse" gradientTransform="translate(123.764 124.823) rotate(135) scale(28.25)">
<stop stop-color="#FFF6ED" stop-opacity="0"/>
<stop offset="1" stop-color="#B2C9E6"/>
</radialGradient>
</defs>
</svg>
